<?xml version="1.0" encoding="utf-8"?>
<!-- Generator: Adobe Illustrator 16.0.0, SVG Export Plug-In . SVG Version: 6.00 Build 0)  -->
<!DOCTYPE svg PUBLIC "-//W3C//DTD SVG 1.1//EN" "http://www.w3.org/Graphics/SVG/1.1/DTD/svg11.dtd">
<svg version="1.1" id="Layer_1" xmlns="http://www.w3.org/2000/svg" xmlns:xlink="http://www.w3.org/1999/xlink" x="0px" y="0px"
	 width="413.433px" height="413.433px" viewBox="0 0 413.433 413.433" enable-background="new 0 0 413.433 413.433"
	 xml:space="preserve">
<circle opacity="0.7" fill="none" stroke="#AAA6D0" stroke-width="6" stroke-miterlimit="10" cx="206.5" cy="209.341" r="34.561"/>
<circle opacity="0.7" fill="none" stroke="#8FCCC0" stroke-width="6" stroke-miterlimit="10" cx="206.5" cy="209.341" r="47.397"/>
<circle opacity="0.7" fill="none" stroke="#ED8B59" stroke-width="6" stroke-miterlimit="10" cx="206.5" cy="209.341" r="40.979"/>
<circle opacity="0.7" fill="none" stroke="#2C4676" stroke-width="6" stroke-miterlimit="10" cx="206.5" cy="209.342" r="28.142"/>
<circle opacity="0.7" fill="none" stroke="#98C981" stroke-width="6" stroke-miterlimit="10" cx="206.5" cy="209.342" r="21.724"/>
<circle opacity="0.7" fill="none" stroke="#F6DA0A" stroke-width="6" stroke-miterlimit="10" cx="206.5" cy="209.342" r="15.306"/>
<circle opacity="0.7" fill="none" stroke="#49C1F0" stroke-width="6" stroke-miterlimit="10" cx="206.5" cy="209.342" r="8.887"/>
<g>
	<g>
		<g>
			<path fill="none" stroke="#000000" stroke-width="0.5" stroke-miterlimit="10" d="M169.488,187.892"/>
			
				<line fill="none" stroke="#000000" stroke-width="0.5" stroke-miterlimit="10" x1="206.473" y1="145.855" x2="206.473" y2="272.954"/>
		</g>
	</g>
	<g>
		<g>
			<polyline fill="none" stroke="#000000" stroke-width="0.5" stroke-miterlimit="10" points="150.16,176.957 206.473,209.244 
				153.834,239.894 			"/>
		</g>
	</g>
	<g>
		<g>
			<polyline fill="none" stroke="#000000" stroke-width="0.5" stroke-miterlimit="10" points="261.341,240.873 206.473,209.244 
				256.934,180.051 			"/>
		</g>
	</g>
</g>
<g>
	<g>
	</g>
	<g>
	</g>
	<g>
	</g>
	<g>
	</g>
	<g>
	</g>
	<g>
	</g>
</g>
<g>
	<path fill="#010202" d="M200.98,142.209l0.267,1.027c0.059,0.226,0.113,0.435,0.15,0.644h0.013
		c0.046-0.205,0.113-0.422,0.179-0.639l0.331-1.032h0.309l0.314,1.011c0.075,0.243,0.134,0.456,0.18,0.66h0.013
		c0.033-0.205,0.087-0.417,0.154-0.656l0.288-1.015h0.364l-0.652,2.022h-0.334l-0.309-0.965c-0.071-0.225-0.13-0.426-0.18-0.664
		h-0.008c-0.05,0.242-0.113,0.451-0.184,0.668l-0.326,0.961h-0.335l-0.609-2.022H200.98z"/>
	<path fill="#010202" d="M204.073,143.287c0.009,0.497,0.326,0.701,0.694,0.701c0.263,0,0.422-0.046,0.56-0.104l0.062,0.263
		c-0.129,0.059-0.351,0.125-0.673,0.125c-0.622,0-0.994-0.409-0.994-1.019s0.359-1.09,0.948-1.09c0.66,0,0.836,0.581,0.836,0.953
		c0,0.075-0.009,0.133-0.013,0.171H204.073z M205.151,143.023c0.004-0.234-0.096-0.597-0.509-0.597
		c-0.372,0-0.535,0.342-0.564,0.597H205.151z"/>
	<path fill="#010202" d="M206.168,143.287c0.008,0.497,0.326,0.701,0.693,0.701c0.263,0,0.421-0.046,0.56-0.104l0.063,0.263
		c-0.13,0.059-0.352,0.125-0.673,0.125c-0.623,0-0.995-0.409-0.995-1.019s0.359-1.09,0.949-1.09c0.66,0,0.835,0.581,0.835,0.953
		c0,0.075-0.008,0.133-0.013,0.171H206.168z M207.246,143.023c0.003-0.234-0.097-0.597-0.51-0.597c-0.372,0-0.535,0.342-0.564,0.597
		H207.246z"/>
	<path fill="#010202" d="M208.421,143.136h0.009c0.05-0.071,0.12-0.159,0.179-0.229l0.594-0.698h0.442l-0.78,0.832l0.89,1.19h-0.447
		l-0.698-0.969l-0.188,0.209v0.76h-0.363v-2.966h0.363V143.136z"/>
	<path fill="#010202" d="M212.337,141.774c-0.075-0.004-0.172,0-0.275,0.017c-0.577,0.096-0.882,0.518-0.944,0.965h0.012
		c0.13-0.171,0.355-0.313,0.657-0.313c0.479,0,0.817,0.347,0.817,0.877c0,0.498-0.338,0.957-0.902,0.957
		c-0.58,0-0.96-0.451-0.96-1.157c0-0.535,0.191-0.957,0.459-1.224c0.226-0.221,0.526-0.359,0.869-0.401
		c0.108-0.017,0.2-0.021,0.268-0.021V141.774z M212.232,143.341c0-0.388-0.222-0.622-0.56-0.622c-0.222,0-0.426,0.138-0.527,0.334
		c-0.024,0.042-0.041,0.096-0.041,0.163c0.008,0.447,0.213,0.777,0.597,0.777C212.02,143.993,212.232,143.729,212.232,143.341z"/>
</g>
<g>
	<path fill="#010202" d="M258.806,179.178l0.268,1.027c0.059,0.226,0.112,0.435,0.151,0.644h0.012
		c0.046-0.205,0.113-0.422,0.18-0.639l0.33-1.032h0.309l0.313,1.011c0.075,0.243,0.135,0.456,0.181,0.66h0.013
		c0.033-0.205,0.087-0.417,0.154-0.656l0.288-1.015h0.363l-0.651,2.022h-0.335l-0.309-0.965c-0.071-0.226-0.13-0.426-0.18-0.664
		h-0.009c-0.05,0.242-0.113,0.451-0.184,0.668l-0.326,0.961h-0.334l-0.609-2.022H258.806z"/>
	<path fill="#010202" d="M261.899,180.256c0.008,0.497,0.326,0.702,0.693,0.702c0.264,0,0.422-0.046,0.56-0.104l0.062,0.263
		c-0.129,0.059-0.351,0.126-0.672,0.126c-0.623,0-0.994-0.41-0.994-1.02c0-0.61,0.358-1.09,0.948-1.09
		c0.66,0,0.835,0.581,0.835,0.953c0,0.075-0.008,0.133-0.013,0.171H261.899z M262.978,179.993c0.004-0.234-0.097-0.597-0.51-0.597
		c-0.372,0-0.534,0.342-0.563,0.597H262.978z"/>
	<path fill="#010202" d="M263.993,180.256c0.009,0.497,0.326,0.702,0.694,0.702c0.263,0,0.421-0.046,0.56-0.104l0.062,0.263
		c-0.13,0.059-0.352,0.126-0.673,0.126c-0.622,0-0.994-0.41-0.994-1.02c0-0.61,0.359-1.09,0.948-1.09
		c0.66,0,0.836,0.581,0.836,0.953c0,0.075-0.009,0.133-0.013,0.171H263.993z M265.071,179.993c0.005-0.234-0.097-0.597-0.51-0.597
		c-0.372,0-0.534,0.342-0.563,0.597H265.071z"/>
	<path fill="#010202" d="M266.247,180.105h0.008c0.05-0.071,0.121-0.159,0.18-0.229l0.594-0.698h0.441l-0.78,0.831l0.89,1.191
		h-0.447l-0.697-0.969l-0.188,0.208v0.761h-0.364v-2.966h0.364V180.105z"/>
	<path fill="#010202" d="M269.41,178.827h-0.008l-0.473,0.254l-0.07-0.279l0.593-0.318h0.313v2.716h-0.355V178.827z"/>
</g>
<g>
	<path fill="#010202" d="M262.29,239.442l0.267,1.028c0.059,0.225,0.113,0.434,0.15,0.643h0.013c0.046-0.204,0.112-0.422,0.18-0.639
		l0.33-1.032h0.309l0.314,1.011c0.075,0.242,0.133,0.456,0.179,0.66h0.013c0.033-0.204,0.088-0.418,0.154-0.656l0.289-1.015h0.363
		l-0.652,2.022h-0.334l-0.309-0.965c-0.071-0.227-0.129-0.427-0.18-0.664h-0.009c-0.05,0.241-0.112,0.45-0.184,0.668l-0.325,0.961
		h-0.335l-0.61-2.022H262.29z"/>
	<path fill="#010202" d="M265.383,240.521c0.009,0.497,0.325,0.702,0.693,0.702c0.264,0,0.422-0.047,0.561-0.105l0.062,0.264
		c-0.13,0.059-0.352,0.126-0.673,0.126c-0.623,0-0.995-0.409-0.995-1.021c0-0.609,0.36-1.09,0.949-1.09
		c0.66,0,0.835,0.581,0.835,0.952c0,0.075-0.008,0.134-0.012,0.172H265.383z M266.461,240.257c0.004-0.233-0.096-0.598-0.51-0.598
		c-0.372,0-0.535,0.343-0.564,0.598H266.461z"/>
	<path fill="#010202" d="M267.478,240.521c0.008,0.497,0.325,0.702,0.692,0.702c0.264,0,0.423-0.047,0.561-0.105l0.062,0.264
		c-0.13,0.059-0.351,0.126-0.672,0.126c-0.623,0-0.995-0.409-0.995-1.021c0-0.609,0.359-1.09,0.949-1.09
		c0.659,0,0.835,0.581,0.835,0.952c0,0.075-0.009,0.134-0.013,0.172H267.478z M268.555,240.257c0.004-0.233-0.096-0.598-0.51-0.598
		c-0.371,0-0.535,0.343-0.563,0.598H268.555z"/>
	<path fill="#010202" d="M269.729,240.37h0.009c0.051-0.071,0.121-0.159,0.18-0.229l0.593-0.698h0.443l-0.781,0.831l0.89,1.191
		h-0.446l-0.698-0.969l-0.188,0.208v0.761h-0.363v-2.967h0.363V240.37z"/>
	<path fill="#010202" d="M272.096,241.465v-0.226l0.289-0.28c0.693-0.66,1.007-1.011,1.011-1.421c0-0.275-0.134-0.53-0.539-0.53
		c-0.247,0-0.451,0.126-0.576,0.229l-0.117-0.259c0.188-0.158,0.455-0.275,0.769-0.275c0.585,0,0.831,0.4,0.831,0.789
		c0,0.502-0.363,0.907-0.936,1.458l-0.218,0.201v0.009h1.221v0.305H272.096z"/>
</g>
<g>
	<path fill="#010202" d="M200.98,272.884l0.267,1.028c0.059,0.225,0.113,0.435,0.15,0.643h0.013
		c0.046-0.205,0.113-0.422,0.179-0.639l0.331-1.032h0.309l0.314,1.011c0.075,0.242,0.134,0.455,0.18,0.66h0.013
		c0.033-0.205,0.087-0.418,0.154-0.655l0.288-1.016h0.364l-0.652,2.021h-0.334l-0.309-0.964c-0.071-0.226-0.13-0.426-0.18-0.665
		h-0.008c-0.05,0.242-0.113,0.451-0.184,0.669l-0.326,0.96h-0.335l-0.609-2.021H200.98z"/>
	<path fill="#010202" d="M204.073,273.962c0.009,0.497,0.326,0.702,0.694,0.702c0.263,0,0.422-0.046,0.56-0.104l0.062,0.263
		c-0.129,0.059-0.351,0.125-0.673,0.125c-0.622,0-0.994-0.409-0.994-1.019c0-0.61,0.359-1.09,0.948-1.09
		c0.66,0,0.836,0.58,0.836,0.952c0,0.074-0.009,0.133-0.013,0.171H204.073z M205.151,273.699c0.004-0.234-0.096-0.598-0.509-0.598
		c-0.372,0-0.535,0.342-0.564,0.598H205.151z"/>
	<path fill="#010202" d="M206.168,273.962c0.008,0.497,0.326,0.702,0.693,0.702c0.263,0,0.421-0.046,0.56-0.104l0.063,0.263
		c-0.13,0.059-0.352,0.125-0.673,0.125c-0.623,0-0.995-0.409-0.995-1.019c0-0.61,0.359-1.09,0.949-1.09
		c0.66,0,0.835,0.58,0.835,0.952c0,0.074-0.008,0.133-0.013,0.171H206.168z M207.246,273.699c0.003-0.234-0.097-0.598-0.51-0.598
		c-0.372,0-0.535,0.342-0.564,0.598H207.246z"/>
	<path fill="#010202" d="M208.421,273.812h0.009c0.05-0.071,0.12-0.158,0.179-0.229l0.594-0.698h0.442l-0.78,0.832l0.89,1.189
		h-0.447l-0.698-0.969l-0.188,0.209v0.76h-0.363v-2.966h0.363V273.812z"/>
	<path fill="#010202" d="M210.875,274.484c0.104,0.066,0.346,0.171,0.602,0.171c0.472,0,0.618-0.301,0.614-0.526
		c-0.005-0.38-0.348-0.543-0.702-0.543h-0.205v-0.276h0.205c0.267,0,0.605-0.138,0.605-0.459c0-0.217-0.138-0.409-0.477-0.409
		c-0.217,0-0.426,0.096-0.543,0.179l-0.096-0.267c0.142-0.104,0.418-0.209,0.71-0.209c0.535,0,0.777,0.317,0.777,0.647
		c0,0.28-0.167,0.518-0.501,0.639v0.009c0.334,0.066,0.605,0.317,0.605,0.697c0,0.436-0.339,0.815-0.99,0.815
		c-0.306,0-0.572-0.097-0.706-0.185L210.875,274.484z"/>
</g>
<g>
	<path fill="#010202" d="M139.671,239.442l0.267,1.028c0.059,0.225,0.113,0.434,0.151,0.643h0.012
		c0.046-0.204,0.113-0.422,0.18-0.639l0.331-1.032h0.309l0.313,1.011c0.076,0.242,0.134,0.456,0.18,0.66h0.012
		c0.034-0.204,0.087-0.418,0.154-0.656l0.289-1.015h0.363l-0.652,2.022h-0.334l-0.309-0.965c-0.071-0.227-0.129-0.427-0.18-0.664
		h-0.008c-0.05,0.241-0.113,0.45-0.184,0.668l-0.326,0.961h-0.334l-0.61-2.022H139.671z"/>
	<path fill="#010202" d="M142.765,240.521c0.008,0.497,0.325,0.702,0.693,0.702c0.264,0,0.422-0.047,0.56-0.105l0.062,0.264
		c-0.129,0.059-0.351,0.126-0.672,0.126c-0.623,0-0.995-0.409-0.995-1.021c0-0.609,0.359-1.09,0.948-1.09
		c0.66,0,0.836,0.581,0.836,0.952c0,0.075-0.009,0.134-0.013,0.172H142.765z M143.842,240.257c0.004-0.233-0.096-0.598-0.51-0.598
		c-0.372,0-0.535,0.343-0.564,0.598H143.842z"/>
	<path fill="#010202" d="M144.858,240.521c0.009,0.497,0.326,0.702,0.693,0.702c0.264,0,0.422-0.047,0.56-0.105l0.062,0.264
		c-0.129,0.059-0.351,0.126-0.672,0.126c-0.623,0-0.994-0.409-0.994-1.021c0-0.609,0.359-1.09,0.948-1.09
		c0.66,0,0.835,0.581,0.835,0.952c0,0.075-0.009,0.134-0.012,0.172H144.858z M145.937,240.257c0.004-0.233-0.096-0.598-0.51-0.598
		c-0.372,0-0.535,0.343-0.564,0.598H145.937z"/>
	<path fill="#010202" d="M147.111,240.37h0.009c0.05-0.071,0.121-0.159,0.18-0.229l0.593-0.698h0.443l-0.781,0.831l0.89,1.191
		h-0.447l-0.698-0.969l-0.188,0.208v0.761h-0.363v-2.967h0.363V240.37z"/>
	<path fill="#010202" d="M150.614,241.465v-0.74h-1.262v-0.242l1.212-1.733h0.397v1.688h0.38v0.287h-0.38v0.74H150.614z
		 M150.614,240.438v-0.907c0-0.143,0.003-0.284,0.012-0.427h-0.012c-0.084,0.159-0.151,0.276-0.226,0.401l-0.664,0.923v0.01H150.614
		z"/>
</g>
<g>
	<path fill="#010202" d="M138.278,175.695l0.267,1.028c0.059,0.226,0.113,0.435,0.151,0.644h0.012
		c0.046-0.205,0.113-0.422,0.179-0.639l0.331-1.032h0.309l0.313,1.011c0.075,0.242,0.134,0.455,0.18,0.66h0.013
		c0.033-0.205,0.087-0.418,0.154-0.656l0.288-1.015h0.364l-0.652,2.022h-0.334l-0.309-0.965c-0.071-0.226-0.13-0.426-0.18-0.665
		h-0.008c-0.05,0.243-0.113,0.451-0.184,0.668l-0.326,0.961h-0.334l-0.61-2.022H138.278z"/>
	<path fill="#010202" d="M141.371,176.773c0.009,0.497,0.326,0.702,0.694,0.702c0.263,0,0.422-0.046,0.56-0.104l0.062,0.263
		c-0.129,0.059-0.351,0.125-0.673,0.125c-0.623,0-0.994-0.41-0.994-1.02s0.359-1.09,0.948-1.09c0.66,0,0.835,0.581,0.835,0.953
		c0,0.075-0.008,0.134-0.012,0.171H141.371z M142.449,176.509c0.003-0.234-0.097-0.597-0.51-0.597c-0.372,0-0.535,0.342-0.564,0.597
		H142.449z"/>
	<path fill="#010202" d="M143.465,176.773c0.009,0.497,0.326,0.702,0.694,0.702c0.263,0,0.422-0.046,0.56-0.104l0.062,0.263
		c-0.129,0.059-0.351,0.125-0.673,0.125c-0.622,0-0.994-0.41-0.994-1.02s0.359-1.09,0.948-1.09c0.66,0,0.836,0.581,0.836,0.953
		c0,0.075-0.009,0.134-0.013,0.171H143.465z M144.543,176.509c0.004-0.234-0.096-0.597-0.51-0.597c-0.372,0-0.535,0.342-0.563,0.597
		H144.543z"/>
	<path fill="#010202" d="M145.718,176.622h0.008c0.05-0.071,0.121-0.159,0.18-0.229l0.593-0.698h0.443l-0.782,0.832l0.89,1.19
		h-0.447l-0.697-0.969l-0.188,0.209v0.76h-0.364v-2.966h0.364V176.622z"/>
	<path fill="#010202" d="M149.705,175.311h-1.036l-0.104,0.698c0.062-0.008,0.121-0.017,0.221-0.017
		c0.209,0,0.418,0.046,0.585,0.146c0.213,0.121,0.388,0.355,0.388,0.698c0,0.531-0.422,0.927-1.011,0.927
		c-0.297,0-0.547-0.083-0.677-0.167l0.092-0.28c0.113,0.067,0.334,0.15,0.581,0.15c0.347,0,0.644-0.226,0.644-0.589
		c-0.004-0.351-0.238-0.602-0.781-0.602c-0.155,0-0.276,0.017-0.376,0.029l0.175-1.303h1.299V175.311z"/>
</g>
</svg>
