<?xml version="1.0" encoding="utf-8"?>
<!-- Generator: Adobe Illustrator 16.0.0, SVG Export Plug-In . SVG Version: 6.00 Build 0)  -->
<!DOCTYPE svg PUBLIC "-//W3C//DTD SVG 1.1//EN" "http://www.w3.org/Graphics/SVG/1.1/DTD/svg11.dtd">
<svg version="1.1" id="Layer_1" xmlns="http://www.w3.org/2000/svg" xmlns:xlink="http://www.w3.org/1999/xlink" x="0px" y="0px"
	 width="640px" height="549.333px" viewBox="0 0 640 549.333" enable-background="new 0 0 640 549.333" xml:space="preserve">
<circle fill="#ABD8D0" cx="465.045" cy="103.609" r="8.317"/>
<g>
	<text transform="matrix(1 0 0 1 478.9983 107.7808)" font-family="'AlegreyaSansSC-Thin'" font-size="14">Deep interviews </text>
	
		<text transform="matrix(1 0 0 1 478.9983 107.7808)" fill="none" stroke="#1C1C1B" stroke-width="0.5" stroke-miterlimit="10" font-family="'AlegreyaSansSC-Thin'" font-size="14">Deep interviews </text>
</g>
<circle fill="#7B91B2" cx="465.045" cy="201.199" r="8.316"/>
<g>
	<g>
		
			<text transform="matrix(1 0 0 1 478.9983 205.3657)" fill="none" stroke="#1C1C1B" stroke-width="0.5" stroke-miterlimit="10" font-family="'AlegreyaSansSC-Thin'" font-size="14">Concept &amp; Sketching</text>
		
			<text transform="matrix(1 0 0 1 478.9983 205.3657)" fill="none" stroke="#1C1C1B" stroke-width="0.5" stroke-miterlimit="10" font-family="'AlegreyaSansSC-Thin'" font-size="14">Concept &amp; Sketching</text>
	</g>
</g>
<circle fill="#EAA486" cx="465.045" cy="136.139" r="8.316"/>
<g>
	<g>
		
			<text transform="matrix(1 0 0 1 478.9983 140.3091)" fill="none" stroke="#1C1C1B" stroke-width="0.5" stroke-miterlimit="10" font-family="'AlegreyaSansSC-Thin'" font-size="14">Investigating  Data</text>
		
			<text transform="matrix(1 0 0 1 478.9983 140.3091)" fill="none" stroke="#1C1C1B" stroke-width="0.5" stroke-miterlimit="10" font-family="'AlegreyaSansSC-Thin'" font-size="14">Investigating  Data</text>
	</g>
</g>
<circle fill="#B9E8AC" cx="465.043" cy="233.729" r="8.317"/>
<g>
	<g>
		
			<text transform="matrix(1 0 0 1 478.9983 237.894)" fill="none" stroke="#1C1C1B" stroke-width="0.5" stroke-miterlimit="10" font-family="'AlegreyaSansSC-Thin'" font-size="14">Refine</text>
		
			<text transform="matrix(1 0 0 1 478.9983 237.894)" fill="none" stroke="#1C1C1B" stroke-width="0.5" stroke-miterlimit="10" font-family="'AlegreyaSansSC-Thin'" font-size="14">Refine</text>
	</g>
</g>
<circle fill="#CBCAE5" cx="465.043" cy="168.669" r="8.317"/>
<g>
	<g>
		<g>
			
				<text transform="matrix(1 0 0 1 478.9983 172.8374)" fill="none" stroke="#1C1C1B" stroke-width="0.5" stroke-miterlimit="10" font-family="'AlegreyaSansSC-Thin'" font-size="14">Brainstorm</text>
			
				<text transform="matrix(1 0 0 1 478.9983 172.8374)" fill="none" stroke="#1C1C1B" stroke-width="0.5" stroke-miterlimit="10" font-family="'AlegreyaSansSC-Thin'" font-size="14">Brainstorm</text>
		</g>
	</g>
</g>
<circle fill="#F2DF70" cx="465.045" cy="266.26" r="8.317"/>
<g>
	<g>
		
			<text transform="matrix(1 0 0 1 478.9983 270.4224)" fill="none" stroke="#1C1C1B" stroke-width="0.5" stroke-miterlimit="10" font-family="'AlegreyaSansSC-Thin'" font-size="14">Design</text>
		
			<text transform="matrix(1 0 0 1 478.9983 270.4224)" fill="none" stroke="#1C1C1B" stroke-width="0.5" stroke-miterlimit="10" font-family="'AlegreyaSansSC-Thin'" font-size="14">Design</text>
	</g>
</g>
<path fill="#97D5E8" d="M465.044,307.107c4.59,0,8.312-3.726,8.312-8.317c0-4.593-3.725-8.316-8.312-8.316
	c-4.598,0-8.318,3.724-8.318,8.316C456.726,303.381,460.448,307.107,465.044,307.107z"/>
<g>
	<g>
		
			<text transform="matrix(1 0 0 1 478.9983 302.9497)" fill="none" stroke="#1C1C1B" stroke-width="0.5" stroke-miterlimit="10" font-family="'AlegreyaSansSC-Thin'" font-size="14">Presentation</text>
		
			<text transform="matrix(1 0 0 1 478.9983 302.9497)" fill="none" stroke="#1C1C1B" stroke-width="0.5" stroke-miterlimit="10" font-family="'AlegreyaSansSC-Thin'" font-size="14">Presentation</text>
	</g>
</g>
<path fill="none" stroke="#ABD8D0" stroke-width="18" stroke-miterlimit="10" d="M238.5,54.759
	c50.206,0,94.063,27.193,117.644,67.656"/>
<path fill="none" stroke="#EAA486" stroke-width="18" stroke-miterlimit="10" d="M340.323,131.87
	c10.057,17.33,15.814,37.467,15.814,58.945c0,64.967-52.672,117.634-117.638,117.634s-117.638-52.667-117.638-117.634
	c0-29.545,10.893-56.547,28.883-77.207"/>
<path fill="none" stroke="#7B91B2" stroke-width="18" stroke-miterlimit="10" d="M168.395,230.989
	c-6.794-11.832-10.682-25.549-10.682-40.172c0-14.689,3.921-28.463,10.774-40.332"/>
<path fill="none" stroke="#B9E8AC" stroke-width="18" stroke-miterlimit="10" d="M176.138,190.817
	c0-20.775,10.159-39.176,25.78-50.508"/>
<path opacity="0.7" fill="none" stroke="#F6DA05" stroke-width="18" stroke-miterlimit="10" d="M238.5,146.882"/>
<path fill="none" stroke="#F2DF70" stroke-width="18" stroke-miterlimit="10" d="M238.5,234.751
	c-24.266,0-43.938-19.67-43.938-43.934c0.001-14.666,7.187-27.654,18.231-35.635"/>
<path fill="none" stroke="#97D5E8" stroke-width="18" stroke-miterlimit="10" d="M238.5,216.327
	c-14.09,0-25.512-11.422-25.512-25.51c0-14.09,11.422-25.51,25.512-25.51"/>
<g>
	
		<text transform="matrix(1 0 0 1 216.5315 23.9053)" fill="none" stroke="#1C1C1B" stroke-width="0.5" stroke-miterlimit="10" font-family="'AlegreyaSansSC-Thin'" font-size="14">week 6</text>
</g>
<g>
	
		<text transform="matrix(1 0 0 1 215.3596 369.9048)" fill="none" stroke="#1C1C1B" stroke-width="0.5" stroke-miterlimit="10" font-family="'AlegreyaSansSC-Thin'" font-size="14">week 3</text>
</g>
<g>
	
		<text transform="matrix(1 0 0 1 378.3596 109.0327)" fill="none" stroke="#1C1C1B" stroke-width="0.5" stroke-miterlimit="10" font-family="'AlegreyaSansSC-Thin'" font-size="14">week 1</text>
</g>
<g>
	
		<text transform="matrix(1 0 0 1 378.3596 280.0337)" fill="none" stroke="#1C1C1B" stroke-width="0.5" stroke-miterlimit="10" font-family="'AlegreyaSansSC-Thin'" font-size="14">week 2</text>
</g>
<g>
	
		<text transform="matrix(1 0 0 1 50.3596 280.0337)" fill="none" stroke="#1C1C1B" stroke-width="0.5" stroke-miterlimit="10" font-family="'AlegreyaSansSC-Thin'" font-size="14">week 4</text>
</g>
<g>
	
		<text transform="matrix(1 0 0 1 50.3596 109.0327)" fill="none" stroke="#1C1C1B" stroke-width="0.5" stroke-miterlimit="10" font-family="'AlegreyaSansSC-Thin'" font-size="14">week 5</text>
</g>
<line fill="none" stroke="#5D5C5C" stroke-miterlimit="10" x1="238.514" y1="190.802" x2="101.474" y2="269.341"/>
<line fill="none" stroke="#5D5C5C" stroke-miterlimit="10" x1="98.889" y1="110.019" x2="238.53" y2="190.804"/>
<path fill="none" stroke="#CBCAE5" stroke-width="18" stroke-miterlimit="10" d="M267.003,95.421
	c40.655,12.645,70.174,50.566,70.174,95.383"/>
<path fill="none" stroke="#CBCAE5" stroke-width="18" stroke-miterlimit="10" d="M239.304,290.676
	c-20.462,0-39.486-6.152-55.324-16.71"/>
<g>
	<g>
		<g>
			<g>
				<path fill="none" stroke="#5D5C5C" stroke-miterlimit="10" d="M136.154,131.728"/>
				<line fill="none" stroke="#5D5C5C" stroke-miterlimit="10" x1="238.5" y1="26.625" x2="238.5" y2="347.461"/>
			</g>
		</g>
		<g>
			<g>
				<path fill="none" stroke="#5D5C5C" stroke-miterlimit="10" d="M92.833,275.635"/>
				<path fill="none" stroke="#5D5C5C" stroke-miterlimit="10" d="M238.5,190.817"/>
			</g>
		</g>
		<g>
			<g>
				<polyline fill="none" stroke="#5D5C5C" stroke-miterlimit="10" points="375.54,269.356 238.5,190.817 378.141,110.032 				"/>
			</g>
		</g>
	</g>
	<g>
		<g>
		</g>
		<g>
		</g>
		<g>
		</g>
		<g>
		</g>
		<g>
		</g>
		<g>
		</g>
	</g>
</g>
</svg>
