<?xml version="1.0" encoding="utf-8"?>
<!-- Generator: Adobe Illustrator 16.0.0, SVG Export Plug-In . SVG Version: 6.00 Build 0)  -->
<!DOCTYPE svg PUBLIC "-//W3C//DTD SVG 1.1//EN" "http://www.w3.org/Graphics/SVG/1.1/DTD/svg11.dtd">
<svg version="1.1" id="Layer_1" xmlns="http://www.w3.org/2000/svg" xmlns:xlink="http://www.w3.org/1999/xlink" x="0px" y="0px"
	 width="1279.92px" height="543.121px" viewBox="0 0 1279.92 543.121" enable-background="new 0 0 1279.92 543.121"
	 xml:space="preserve">
<circle fill="#ABD8D0" cx="1017.179" cy="282.874" r="8.558"/>
<g>
	<text transform="matrix(1 0 0 1 1029.7432 286.7812)" font-family="'AlegreyaSansSC-Thin'" font-size="11.2287">Deep interviews </text>
	
		<text transform="matrix(1 0 0 1 1029.7432 286.7812)" fill="none" stroke="#1C1C1B" stroke-width="0.5" stroke-miterlimit="10" font-family="'AlegreyaSansSC-Thin'" font-size="11.2287">Deep interviews </text>
</g>
<circle fill="#7B91B2" cx="1017.179" cy="354.265" r="8.556"/>
<g>
	<text transform="matrix(1 0 0 1 1029.7432 357.3721)" font-family="'AlegreyaSansSC-Thin'" font-size="11.2287">Concept &amp; Sketching</text>
	
		<text transform="matrix(1 0 0 1 1029.7432 357.3721)" fill="none" stroke="#1C1C1B" stroke-width="0.5" stroke-miterlimit="10" font-family="'AlegreyaSansSC-Thin'" font-size="11.2287">Concept &amp; Sketching</text>
</g>
<circle fill="#EAA486" cx="1017.179" cy="306.672" r="8.555"/>
<g>
	<text transform="matrix(1 0 0 1 1029.7432 309.7773)" font-family="'AlegreyaSansSC-Thin'" font-size="11.2287">Investigating  Data</text>
	
		<text transform="matrix(1 0 0 1 1029.7432 309.7773)" fill="none" stroke="#1C1C1B" stroke-width="0.5" stroke-miterlimit="10" font-family="'AlegreyaSansSC-Thin'" font-size="11.2287">Investigating  Data</text>
</g>
<circle fill="#B9E8AC" cx="1017.177" cy="378.062" r="8.555"/>
<g>
	<text transform="matrix(1 0 0 1 1029.7432 381.1689)" font-family="'AlegreyaSansSC-Thin'" font-size="11.2287">Refine</text>
	
		<text transform="matrix(1 0 0 1 1029.7432 381.1689)" fill="none" stroke="#1C1C1B" stroke-width="0.5" stroke-miterlimit="10" font-family="'AlegreyaSansSC-Thin'" font-size="11.2287">Refine</text>
</g>
<circle fill="#CBCAE5" cx="1017.177" cy="330.468" r="8.556"/>
<g>
	<g>
		<text transform="matrix(1 0 0 1 1029.7432 333.5752)" font-family="'AlegreyaSansSC-Thin'" font-size="11.2287">Brainstorm</text>
		
			<text transform="matrix(1 0 0 1 1029.7432 333.5752)" fill="none" stroke="#1C1C1B" stroke-width="0.5" stroke-miterlimit="10" font-family="'AlegreyaSansSC-Thin'" font-size="11.2287">Brainstorm</text>
	</g>
</g>
<circle fill="#F2DF70" cx="1017.179" cy="401.859" r="8.556"/>
<g>
	<text transform="matrix(1 0 0 1 1029.7432 404.9678)" font-family="'AlegreyaSansSC-Thin'" font-size="11.2287">Design</text>
	
		<text transform="matrix(1 0 0 1 1029.7432 404.9678)" fill="none" stroke="#1C1C1B" stroke-width="0.5" stroke-miterlimit="10" font-family="'AlegreyaSansSC-Thin'" font-size="11.2287">Design</text>
</g>
<path fill="#97D5E8" d="M1017.18,434.213c4.723,0,8.556-3.832,8.556-8.557c0-4.726-3.833-8.556-8.556-8.556
	c-4.728,0-8.557,3.83-8.557,8.556C1008.623,430.381,1012.452,434.213,1017.18,434.213z"/>
<g>
	<text transform="matrix(1 0 0 1 1029.7432 428.7646)" font-family="'AlegreyaSansSC-Thin'" font-size="11.2287">Presentation</text>
	
		<text transform="matrix(1 0 0 1 1029.7432 428.7646)" fill="none" stroke="#1C1C1B" stroke-width="0.5" stroke-miterlimit="10" font-family="'AlegreyaSansSC-Thin'" font-size="11.2287">Presentation</text>
</g>
<g>
	<text transform="matrix(1 0 0 1 1008.6221 121.1475)" fill="#FFFFFF" font-family="'AlternateGotNo3D'" font-size="21.2479">6 weeks project</text>
</g>
<path fill="none" stroke="#ABD8D0" stroke-width="18" stroke-miterlimit="10" d="M811.63,149.031
	c50.206,0,94.063,27.193,117.645,67.656"/>
<path fill="none" stroke="#EAA486" stroke-width="18" stroke-miterlimit="10" d="M913.453,226.142
	c10.057,17.33,15.813,37.467,15.813,58.945c0,64.968-52.672,117.635-117.638,117.635s-117.638-52.667-117.638-117.635
	c0-29.545,10.893-56.547,28.883-77.207"/>
<path fill="none" stroke="#7B91B2" stroke-width="18" stroke-miterlimit="10" d="M741.525,325.261
	c-6.794-11.831-10.683-25.549-10.683-40.172c0-14.689,3.921-28.463,10.774-40.332"/>
<path fill="none" stroke="#B9E8AC" stroke-width="18" stroke-miterlimit="10" d="M749.268,285.089
	c0-20.775,10.159-39.176,25.78-50.508"/>
<path opacity="0.7" fill="none" stroke="#F6DA05" stroke-width="18" stroke-miterlimit="10" enable-background="new    " d="
	M811.63,241.154"/>
<path fill="none" stroke="#F2DF70" stroke-width="18" stroke-miterlimit="10" d="M811.63,329.023
	c-24.266,0-43.938-19.67-43.938-43.935c0.001-14.666,7.187-27.654,18.23-35.635"/>
<path fill="none" stroke="#97D5E8" stroke-width="18" stroke-miterlimit="10" d="M811.63,310.6
	c-14.09,0-25.512-11.423-25.512-25.511c0-14.09,11.422-25.51,25.512-25.51"/>
<g>
	<text transform="matrix(1 0 0 1 788.4893 100.1768)" font-family="'AlegreyaSansSC-Thin'" font-size="17">week 6</text>
</g>
<g>
	<text transform="matrix(1 0 0 1 788.4893 464.1768)" font-family="'AlegreyaSansSC-Thin'" font-size="17">week 3</text>
</g>
<g>
	<text transform="matrix(1 0 0 1 951.4893 203.3047)" font-family="'AlegreyaSansSC-Thin'" font-size="17">week 1</text>
</g>
<g>
	<text transform="matrix(1 0 0 1 951.4893 374.3057)" font-family="'AlegreyaSansSC-Thin'" font-size="17">week 2</text>
</g>
<g>
	<text transform="matrix(1 0 0 1 623.4893 374.3057)" font-family="'AlegreyaSansSC-Thin'" font-size="17">week 4</text>
</g>
<g>
	<text transform="matrix(1 0 0 1 623.4893 203.3047)" font-family="'AlegreyaSansSC-Thin'" font-size="17">week 5</text>
</g>
<line fill="none" stroke="#5D5C5C" stroke-miterlimit="10" x1="811.644" y1="285.074" x2="674.604" y2="363.613"/>
<line fill="none" stroke="#5D5C5C" stroke-miterlimit="10" x1="672.019" y1="204.291" x2="811.659" y2="285.076"/>
<path fill="none" stroke="#CBCAE5" stroke-width="18" stroke-miterlimit="10" d="M840.133,189.693
	c40.655,12.645,70.174,50.566,70.174,95.383"/>
<path fill="none" stroke="#CBCAE5" stroke-width="18" stroke-miterlimit="10" d="M812.434,384.949
	c-20.462,0-39.485-6.152-55.323-16.711"/>
<g>
	<g>
		<g>
			<g>
				<path fill="none" stroke="#5D5C5C" stroke-miterlimit="10" d="M709.283,226"/>
				<line fill="none" stroke="#5D5C5C" stroke-miterlimit="10" x1="811.63" y1="109.673" x2="811.63" y2="441.734"/>
			</g>
		</g>
		<g>
			<g>
				<path fill="none" stroke="#5D5C5C" stroke-miterlimit="10" d="M665.963,369.908"/>
				<path fill="none" stroke="#5D5C5C" stroke-miterlimit="10" d="M811.63,285.089"/>
			</g>
		</g>
		<g>
			<g>
				<polyline fill="none" stroke="#5D5C5C" stroke-miterlimit="10" points="948.67,363.628 811.63,285.089 951.271,204.304 				"/>
			</g>
		</g>
	</g>
</g>
</svg>
