<?xml version="1.0" encoding="utf-8"?>
<!-- Generator: Adobe Illustrator 16.0.0, SVG Export Plug-In . SVG Version: 6.00 Build 0)  -->
<!DOCTYPE svg PUBLIC "-//W3C//DTD SVG 1.1//EN" "http://www.w3.org/Graphics/SVG/1.1/DTD/svg11.dtd">
<svg version="1.1" id="Layer_1" xmlns="http://www.w3.org/2000/svg" xmlns:xlink="http://www.w3.org/1999/xlink" x="0px" y="0px"
	 width="1279.92px" height="543.121px" viewBox="0 0 1279.92 543.121" enable-background="new 0 0 1279.92 543.121"
	 xml:space="preserve">
<g>
	<path fill="#AA1960" d="M793.245,296.764v-44.481l-9.783-0.02v44.501c0,7.928,3.729,12.299,10.285,13.559
		c0.707,0.104,2.268,0.398,3.721,0.078v-9.148C795.888,301.252,793.245,299.998,793.245,296.764L793.245,296.764z"/>
	<path fill="#AA1960" d="M904.577,281.747c0-3.34,2.875-6.891,8.195-6.891c5.318,0,8.186,3.551,8.186,6.891v13.559
		c0,3.348-2.867,6.905-8.186,6.905c-5.32,0-8.195-3.558-8.195-6.905V281.747L904.577,281.747z M912.773,266.942
		c-10.248,0-17.982,6.372-17.982,14.805v13.559c0,8.44,7.734,14.806,17.982,14.806c10.244,0,17.971-6.365,17.971-14.806v-13.559
		C930.743,273.314,923.017,266.942,912.773,266.942L912.773,266.942z"/>
	<path fill="#AA1960" d="M876.771,268.539c-2.178-0.673-5.688-0.729-8.123,0.214c-2.021,0.782-3.828,2.271-5.076,4.576v2.67
		c1.238-0.701,2.945-1.428,4.801-1.543c5.334-0.334,8.037,3,8.037,7.291v13.559c0,3.733-2.877,6.905-8.189,6.905
		c-5.322,0-8.197-3.131-8.197-6.905v-43.023h-9.77v43.023c0,8.899,7.723,14.806,17.967,14.806c10.24,0,17.967-5.572,17.967-14.806
		v-13.559C886.187,275.888,882.706,270.372,876.771,268.539L876.771,268.539z"/>
	<path fill="#AA1960" d="M957.767,267.004c-10.25,0-17.977,6.357-17.977,14.798v44.479h9.785v-44.479
		c0-3.342,2.863-6.898,8.191-6.898c5.318,0,8.186,3.557,8.186,6.898v13.551c0,3.348-2.867,6.903-8.186,6.903
		c-1.861,0-3.41-0.438-4.648-1.141v2.92c0.996,2.133,2.82,3.363,4.197,4.117c1.904,1.037,6.115,1.824,10.09,0.4
		c5.959-2.084,8.328-6.055,8.328-13.2v-13.551C975.734,273.361,968.009,267.004,957.767,267.004L957.767,267.004z"/>
	<path fill="#AA1960" d="M823.001,274.856c5.322,0,8.189,3.551,8.189,6.891v2.074c0,0.289,0,0.972-1.365,0.972h-6.621
		c-2.486,0-4.076,0.328-5.477,1.301c-1.379,0.945-2.619,2.782-2.924,3.251v-7.598C814.804,278.407,817.679,274.856,823.001,274.856
		L823.001,274.856z M834.316,295.764c-0.4,0.584-1.389,1.553-1.596,1.819c-1.717,2.108-4.859,4.37-9.719,4.37
		c-5.322,0-8.197-3.3-8.197-6.647v-3.03h20.709c3.408,0,5.449-1.761,5.449-4.688v-5.841c0-8.433-7.721-14.805-17.961-14.805
		c-10.248,0-17.975,6.372-17.975,14.805v13.559c0,8.896,6.879,15.456,17.975,15.456c10.727,0,14.904-5.408,17.209-8.518
		c0.182-0.236,0.826-0.951,0.988-1.621C841.185,300.617,834.316,295.764,834.316,295.764L834.316,295.764z"/>
	<path fill="#AA1960" d="M755.308,303.131c-5.326,0-7.896-3.844-7.896-7.196c0-2.999,2.086-6.438,6.572-6.488
		c3.787-0.043,9.232,0,9.518,0c-0.002,3.355-0.004,6.701-0.004,6.772C763.497,299.572,760.626,303.131,755.308,303.131
		L755.308,303.131z M755.609,266.957c-4.414,0.047-8.242,1.049-12.053,3.006c-0.748,0.381-1.191,0.656-1.65,0.99
		c0.332,0.604,3.396,7.166,3.396,7.166c0.742-0.492,1.533-0.826,2.297-1.148c1.818-0.762,4.039-1.503,7.709-1.503
		c5.281,0,8.15,3.807,8.182,7.134l0.014,0.006c0,0,0,1.652-0.002,3.804c-0.123-0.172-1.504-2.122-3.045-3.247
		c-1.312-0.957-2.459-1.417-4.602-1.4l-2.107-0.009c-9.756,0-14.594,6.322-14.594,14.18c0,8.446,5.48,15.097,15.729,15.097
		c4.367,0,6.738-1.779,8.615-2.725c0,0,0,1.518,0,1.857h9.777v-27.498C773.275,273.229,766.4,266.846,755.609,266.957
		L755.609,266.957z"/>
	<path fill="#AA1960" d="M715.722,266.957c-6.889,0-10.117,4.069-10.117,4.069c0-1.242,0-17.077,0-17.077
		c0-2.054-1.474-3.38-3.755-3.38l-9.39-0.045v2.303c0.719,0,3.377,0.407,3.377,3.524c0,0.138,0,2.513,0,53.812h9.768v-26.957
		c0-3.688,3.079-7.743,8.023-7.743c4.945,0,7.354,2.742,7.354,6.825v27.875h9.829v-27.798
		C730.812,269.789,722.611,266.957,715.722,266.957L715.722,266.957z"/>
	<path fill="#2B2422" d="M1004.935,220.395c0,2.131-1.431,3.561-3.562,3.561c-2.125,0-3.557-1.43-3.557-3.561
		c0-2.127,1.432-3.555,3.557-3.555C1003.504,216.84,1004.935,218.268,1004.935,220.395L1004.935,220.395z"/>
	<path fill="#2B2422" d="M1004.935,265.118c0,2.128-1.431,3.557-3.562,3.557c-2.125,0-3.557-1.429-3.557-3.557
		c0-2.129,1.432-3.559,3.557-3.559C1003.504,261.56,1004.935,262.989,1004.935,265.118L1004.935,265.118z"/>
	<g>
		<defs>
			<rect id="SVGID_1_" x="692.46" y="216.84" width="328.391" height="109.441"/>
		</defs>
		<clipPath id="SVGID_2_">
			<use xlink:href="#SVGID_1_"  overflow="visible"/>
		</clipPath>
		<path clip-path="url(#SVGID_2_)" fill="#2B2422" d="M983.066,256.06c1.504-1.505,3.527-1.505,5.031,0
			c1.506,1.504,1.506,3.527,0,5.031c-1.504,1.508-3.527,1.508-5.031,0C981.562,259.587,981.562,257.563,983.066,256.06
			L983.066,256.06z"/>
		<path clip-path="url(#SVGID_2_)" fill="#2B2422" d="M1014.687,224.437c1.506-1.503,3.529-1.503,5.034,0
			c1.507,1.505,1.507,3.53,0,5.032c-1.505,1.504-3.528,1.504-5.034,0C1013.185,227.967,1013.185,225.941,1014.687,224.437
			L1014.687,224.437z"/>
		<path clip-path="url(#SVGID_2_)" fill="#2B2422" d="M1001.373,250.515c-4.299,0-7.787-3.487-7.787-7.786
			c0-4.302,3.488-7.79,7.787-7.79c4.303,0,7.789,3.488,7.789,7.79C1009.162,247.027,1005.676,250.515,1001.373,250.515
			L1001.373,250.515z M1011.757,248.184c0.853-1.629,1.342-3.485,1.342-5.455c0-2.409-0.727-4.644-1.967-6.507l3.327-4.601
			c0,0-0.286-0.621-0.794-1.129c-0.505-0.508-1.197-0.796-1.197-0.796l-4.529,3.315c-0.916-0.622-1.928-1.116-3.006-1.459
			c-0.396-0.19-1.357-0.8-1.626-2.273c-0.339-1.853-0.667-3.815-0.667-3.815s-0.547-0.238-1.265-0.238
			c-0.717,0-1.266,0.238-1.266,0.238s-0.336,1.918-0.666,3.815c-0.267,1.527-1.244,2.104-1.619,2.272
			c-1.074,0.34-2.076,0.83-2.99,1.446l-4.582-3.314c0,0-0.627,0.285-1.135,0.793c-0.506,0.505-0.793,1.2-0.793,1.2l3.313,4.521
			c-1.256,1.867-1.987,4.111-1.987,6.531c0,2.015,0.509,3.913,1.407,5.57c0.134,0.504,0.24,1.497-0.513,2.582
			c-1.075,1.549-2.146,3.086-2.146,3.086s0.221,0.559,0.725,1.063c0.509,0.508,1.065,0.727,1.065,0.727s1.511-1.038,3.085-2.146
			c1.191-0.836,2.232-0.641,2.677-0.492c0.979,0.516,2.041,0.892,3.157,1.11l0.907,5.764c0,0,0.642,0.238,1.355,0.238
			c0.721,0,1.415-0.286,1.415-0.286l0.862-5.716c1.121-0.219,2.175-0.595,3.154-1.11c0.446-0.14,1.521-0.344,2.707,0.479
			c1.551,1.074,3.088,2.145,3.088,2.145s0.556-0.221,1.063-0.726c0.507-0.508,0.728-1.065,0.728-1.065s-1.039-1.511-2.147-3.085
			C1011.403,249.669,1011.607,248.624,1011.757,248.184L1011.757,248.184z"/>
		<path clip-path="url(#SVGID_2_)" fill="#2B2422" d="M1014.687,261.078c-1.502-1.505-1.502-3.529,0-5.031
			c1.506-1.508,3.529-1.508,5.034,0c1.507,1.502,1.507,3.526,0,5.031C1018.216,262.582,1016.193,262.582,1014.687,261.078
			L1014.687,261.078z"/>
	</g>
	<path fill="#2B2422" d="M983.066,229.452c-1.504-1.502-1.504-3.525,0-5.028c1.504-1.505,3.527-1.505,5.031,0
		c1.506,1.503,1.506,3.526,0,5.031C986.593,230.959,984.57,230.959,983.066,229.452L983.066,229.452z"/>
</g>
</svg>
