<?xml version="1.0" encoding="utf-8"?>
<!-- Generator: Adobe Illustrator 16.0.0, SVG Export Plug-In . SVG Version: 6.00 Build 0)  -->
<!DOCTYPE svg PUBLIC "-//W3C//DTD SVG 1.1//EN" "http://www.w3.org/Graphics/SVG/1.1/DTD/svg11.dtd">
<svg version="1.1" id="Layer_1" xmlns="http://www.w3.org/2000/svg" xmlns:xlink="http://www.w3.org/1999/xlink" x="0px" y="0px"
	 width="1279.92px" height="543.121px" viewBox="0 0 1279.92 543.121" enable-background="new 0 0 1279.92 543.121"
	 xml:space="preserve">
<rect x="76.069" y="124.413" opacity="0.4" fill="#9697C9" enable-background="new    " width="576.981" height="27.792"/>
<rect x="76.069" y="167.397" opacity="0.4" fill="#9697C9" enable-background="new    " width="576.981" height="27.791"/>
<rect x="76.069" y="210.381" opacity="0.4" fill="#9697C9" enable-background="new    " width="576.981" height="27.792"/>
<rect x="76.069" y="253.364" opacity="0.4" fill="#9697C9" enable-background="new    " width="576.981" height="27.792"/>
<rect x="76.069" y="296.35" opacity="0.4" fill="#9697C9" enable-background="new    " width="576.981" height="27.791"/>
<rect x="76.069" y="124.413" fill="#9697C9" width="511.094" height="27.792"/>
<rect x="76.069" y="167.397" fill="#9697C9" width="458.687" height="27.791"/>
<rect x="76.069" y="210.381" fill="#9697C9" width="488.066" height="27.792"/>
<rect x="76.069" y="253.364" fill="#9697C9" width="434.866" height="27.792"/>
<rect x="76.069" y="296.35" fill="#9697C9" width="532.532" height="27.791"/>
<rect x="76.069" y="339.332" opacity="0.4" fill="#9697C9" enable-background="new    " width="576.981" height="27.793"/>
<rect x="76.069" y="339.332" fill="#9697C9" width="532.532" height="27.793"/>
<g>
	<text transform="matrix(1 0 0 1 79.7505 144.9463)" font-family="'AlegreyaSansSC-Thin'" font-size="20.2776">Leadership</text>
	
		<text transform="matrix(1 0 0 1 79.7505 144.9463)" fill="none" stroke="#000000" stroke-miterlimit="10" font-family="'AlegreyaSansSC-Thin'" font-size="20.2776">Leadership</text>
	<text transform="matrix(1 0 0 1 79.7505 187.8867)" font-family="'AlegreyaSansSC-Thin'" font-size="20.2776">Business driven</text>
	
		<text transform="matrix(1 0 0 1 79.7505 187.8867)" fill="none" stroke="#000000" stroke-miterlimit="10" font-family="'AlegreyaSansSC-Thin'" font-size="20.2776">Business driven</text>
	<text transform="matrix(1 0 0 1 79.7505 230.8281)" font-family="'AlegreyaSansSC-Thin'" font-size="20.2776">Design</text>
	
		<text transform="matrix(1 0 0 1 79.7505 230.8281)" fill="none" stroke="#000000" stroke-miterlimit="10" font-family="'AlegreyaSansSC-Thin'" font-size="20.2776">Design</text>
	<text transform="matrix(1 0 0 1 79.7505 273.7676)" font-family="'AlegreyaSansSC-Thin'" font-size="20.2776">Technology</text>
	
		<text transform="matrix(1 0 0 1 79.7505 273.7676)" fill="none" stroke="#000000" stroke-miterlimit="10" font-family="'AlegreyaSansSC-Thin'" font-size="20.2776">Technology</text>
	<text transform="matrix(1 0 0 1 79.7505 316.71)" font-family="'AlegreyaSansSC-Thin'" font-size="20.2776">Problem solver</text>
	
		<text transform="matrix(1 0 0 1 79.7505 316.71)" fill="none" stroke="#000000" stroke-miterlimit="10" font-family="'AlegreyaSansSC-Thin'" font-size="20.2776">Problem solver</text>
	<text transform="matrix(1 0 0 1 79.7505 359.6494)" font-family="'AlegreyaSansSC-Thin'" font-size="20.2776">Fast learner</text>
	
		<text transform="matrix(1 0 0 1 79.7505 359.6494)" fill="none" stroke="#000000" stroke-miterlimit="10" font-family="'AlegreyaSansSC-Thin'" font-size="20.2776">Fast learner</text>
</g>
<rect x="737.046" y="124.413" fill="none" width="460.478" height="134.629"/>
<text transform="matrix(1 0 0 1 737.0459 132.9326)" font-family="'MyriadPro-Regular'" font-size="12">Degree in packaging design, worked as a product designer, artwoek coordinator photogra</text>
<text transform="matrix(1 0 0 1 1186.665 132.9326)" font-family="'MyriadPro-Regular'" font-size="12">-</text>
<text transform="matrix(1 0 0 1 737.0459 147.333)" font-family="'MyriadPro-Regular'" font-size="12">pher, retusch and responsible for various website of content and pictures.</text>
<text transform="matrix(1 0 0 1 737.0459 176.1328)" font-family="'MyriadPro-Regular'" font-size="12">Have my own illustrator company, since 2012. </text>
<text transform="matrix(1 0 0 1 737.0459 204.9326)" font-family="'MyriadPro-Regular'" font-size="12">About to finnish my Digital Data Strategist education in Stockholm.</text>
<text transform="matrix(1 0 0 1 737.0459 233.7324)" font-family="'MyriadPro-Regular'" font-size="12">Other than that, I listen to swedish punk music, likes to go to all different kind of concerts </text>
<text transform="matrix(1 0 0 1 737.0459 248.1328)" font-family="'MyriadPro-Regular'" font-size="12">and enjoys a good cigar.</text>
<text transform="matrix(1 0 0 1 920.6309 348.2002)" fill="#FFFFFF" font-family="'MyriadPro-Regular'" font-size="12">CONTACT INFO</text>
<rect x="738.545" y="290.145" fill="none" width="493.476" height="268.916"/>
<text transform="matrix(1 0 0 1 738.5449 298.6641)"><tspan x="0" y="0" font-family="'MyriadPro-LightIt'" font-size="12">Hyper Island introduces a different type of education. Courses don&apos;t involve teachers, classes, books or exam</tspan><tspan x="485.069" y="0" font-family="'MyriadPro-LightIt'" font-size="12">-</tspan><tspan x="0" y="14.4" font-family="'MyriadPro-LightIt'" font-size="12">nations. Courses are divided in modules where every module is moderated by people from digital industries </tspan><tspan x="0" y="28.801" font-family="'MyriadPro-LightIt'" font-size="12">and involve doing a large project for real clients with different teams. The focus lies in working well in team, </tspan><tspan x="0" y="43.2" font-family="'MyriadPro-LightIt'" font-size="12">learning by doing, working with real clients and real deadlines, ...</tspan><tspan x="0" y="57.601" font-family="'MyriadPro-LightIt'" font-size="12">Interactive Art Direction aims at a better understanding of digital design and experience, branding and </tspan><tspan x="0" y="72" font-family="'MyriadPro-LightIt'" font-size="12">project management.</tspan><tspan x="0" y="100.801" font-family="'MyriadPro-Regular'" font-size="12">What is a Creative Strategist?</tspan><tspan x="0" y="144" font-family="'MyriadPro-Regular'" font-size="12">Thats is me, in a package of Digital Data Strategy </tspan></text>
</svg>
