<?xml version="1.0" encoding="utf-8"?>
<!-- Generator: Adobe Illustrator 16.0.0, SVG Export Plug-In . SVG Version: 6.00 Build 0)  -->
<!DOCTYPE svg PUBLIC "-//W3C//DTD SVG 1.1//EN" "http://www.w3.org/Graphics/SVG/1.1/DTD/svg11.dtd">
<svg version="1.1" id="Layer_1" xmlns="http://www.w3.org/2000/svg" xmlns:xlink="http://www.w3.org/1999/xlink" x="0px" y="0px"
	 width="640px" height="543.121px" viewBox="0 0 640 543.121" enable-background="new 0 0 640 543.121" xml:space="preserve">
<circle fill="#ABD8D0" cx="431.045" cy="23.937" r="8.317"/>
<g>
	<text transform="matrix(1 0 0 1 444.9983 28.1084)" font-family="'AlegreyaSansSC-Thin'" font-size="14">Deep interviews </text>
	
		<text transform="matrix(1 0 0 1 444.9983 28.1084)" fill="none" stroke="#1C1C1B" stroke-width="0.5" stroke-miterlimit="10" font-family="'AlegreyaSansSC-Thin'" font-size="14">Deep interviews </text>
</g>
<circle fill="#7B91B2" cx="431.045" cy="121.527" r="8.316"/>
<g>
	<g>
		
			<text transform="matrix(1 0 0 1 444.9983 125.6934)" fill="none" stroke="#1C1C1B" stroke-width="0.5" stroke-miterlimit="10" font-family="'AlegreyaSansSC-Thin'" font-size="14">Concept &amp; Sketching</text>
		
			<text transform="matrix(1 0 0 1 444.9983 125.6934)" fill="none" stroke="#1C1C1B" stroke-width="0.5" stroke-miterlimit="10" font-family="'AlegreyaSansSC-Thin'" font-size="14">Concept &amp; Sketching</text>
	</g>
</g>
<circle fill="#EAA486" cx="431.045" cy="56.467" r="8.316"/>
<g>
	<g>
		
			<text transform="matrix(1 0 0 1 444.9983 60.6367)" fill="none" stroke="#1C1C1B" stroke-width="0.5" stroke-miterlimit="10" font-family="'AlegreyaSansSC-Thin'" font-size="14">Investigating  Data</text>
		
			<text transform="matrix(1 0 0 1 444.9983 60.6367)" fill="none" stroke="#1C1C1B" stroke-width="0.5" stroke-miterlimit="10" font-family="'AlegreyaSansSC-Thin'" font-size="14">Investigating  Data</text>
	</g>
</g>
<circle fill="#B9E8AC" cx="431.043" cy="154.057" r="8.317"/>
<g>
	<g>
		
			<text transform="matrix(1 0 0 1 444.9983 158.2217)" fill="none" stroke="#1C1C1B" stroke-width="0.5" stroke-miterlimit="10" font-family="'AlegreyaSansSC-Thin'" font-size="14">Refine</text>
		
			<text transform="matrix(1 0 0 1 444.9983 158.2217)" fill="none" stroke="#1C1C1B" stroke-width="0.5" stroke-miterlimit="10" font-family="'AlegreyaSansSC-Thin'" font-size="14">Refine</text>
	</g>
</g>
<circle fill="#CBCAE5" cx="431.043" cy="88.997" r="8.317"/>
<g>
	<g>
		<g>
			
				<text transform="matrix(1 0 0 1 444.9983 93.1646)" fill="none" stroke="#1C1C1B" stroke-width="0.5" stroke-miterlimit="10" font-family="'AlegreyaSansSC-Thin'" font-size="14">Brainstorm</text>
			
				<text transform="matrix(1 0 0 1 444.9983 93.1646)" fill="none" stroke="#1C1C1B" stroke-width="0.5" stroke-miterlimit="10" font-family="'AlegreyaSansSC-Thin'" font-size="14">Brainstorm</text>
		</g>
	</g>
</g>
<circle fill="#F2DF70" cx="431.045" cy="186.588" r="8.317"/>
<g>
	<g>
		
			<text transform="matrix(1 0 0 1 444.9983 190.75)" fill="none" stroke="#1C1C1B" stroke-width="0.5" stroke-miterlimit="10" font-family="'AlegreyaSansSC-Thin'" font-size="14">Design</text>
		
			<text transform="matrix(1 0 0 1 444.9983 190.75)" fill="none" stroke="#1C1C1B" stroke-width="0.5" stroke-miterlimit="10" font-family="'AlegreyaSansSC-Thin'" font-size="14">Design</text>
	</g>
</g>
<path fill="#97D5E8" d="M431.044,227.435c4.59,0,8.314-3.726,8.314-8.317c0-4.593-3.725-8.316-8.314-8.316
	c-4.596,0-8.318,3.723-8.318,8.316C422.726,223.709,426.448,227.435,431.044,227.435z"/>
<g>
	<g>
		
			<text transform="matrix(1 0 0 1 444.9983 223.2778)" fill="none" stroke="#1C1C1B" stroke-width="0.5" stroke-miterlimit="10" font-family="'AlegreyaSansSC-Thin'" font-size="14">Presentation</text>
		
			<text transform="matrix(1 0 0 1 444.9983 223.2778)" fill="none" stroke="#1C1C1B" stroke-width="0.5" stroke-miterlimit="10" font-family="'AlegreyaSansSC-Thin'" font-size="14">Presentation</text>
	</g>
</g>
<path opacity="0.7" fill="none" stroke="#98C881" stroke-width="18" stroke-miterlimit="10" enable-background="new    " d="
	M283.924,134.615"/>
<g>
	<g>
		
			<text transform="matrix(1 0 0 1 227.6912 12.8506)" fill="none" stroke="#1C1C1B" stroke-width="0.5" stroke-miterlimit="10" font-family="'AlegreyaSansSC-Thin'" font-size="14">day 5</text>
	</g>
</g>
<g>
	<g>
		
			<text transform="matrix(1 0 0 1 94.2024 98.6606)" fill="none" stroke="#1C1C1B" stroke-width="0.5" stroke-miterlimit="10" font-family="'AlegreyaSansSC-Thin'" font-size="14">day 4</text>
	</g>
</g>
<g>
	<g>
		
			<text transform="matrix(1 0 0 1 155.6624 238.3242)" fill="none" stroke="#1C1C1B" stroke-width="0.5" stroke-miterlimit="10" font-family="'AlegreyaSansSC-Thin'" font-size="14">day 3</text>
	</g>
</g>
<g>
	<g>
		
			<text transform="matrix(1 0 0 1 303.5032 239.3721)" fill="none" stroke="#1C1C1B" stroke-width="0.5" stroke-miterlimit="10" font-family="'AlegreyaSansSC-Thin'" font-size="14">day 2</text>
	</g>
</g>
<g>
	<g>
		
			<text transform="matrix(1 0 0 1 356.6448 98.6606)" fill="none" stroke="#1C1C1B" stroke-width="0.5" stroke-miterlimit="10" font-family="'AlegreyaSansSC-Thin'" font-size="14">day 1</text>
	</g>
</g>
<path fill="none" stroke="#CBCAE5" stroke-width="13" stroke-miterlimit="10" d="M307.172,112.686
	c1.955,6.478,3.008,13.347,3.008,20.462c0,39.041-31.653,70.692-70.694,70.692c-14.646,0-28.251-4.455-39.537-12.081"/>
<path fill="none" stroke="#ABD8D0" stroke-width="13" stroke-miterlimit="10" d="M239.486,36.201
	c43.503,0,80.316,28.654,92.592,68.118l0.198,0.583"/>
<path fill="none" stroke="#EAA486" stroke-width="13" stroke-miterlimit="10" d="M310.181,88.095
	c3.96,6.201,7.128,12.959,9.358,20.129c2.45,7.874,3.77,16.244,3.77,24.924c0,28.139-13.869,53.04-35.142,68.242l-1.739,1.173"/>
<path fill="none" stroke="#7B91B2" stroke-width="13" stroke-miterlimit="10" d="M294.51,116.19c1.65,5.361,2.54,11.057,2.54,16.958
	c0,19.325-9.523,36.425-24.132,46.866c-9.424,6.734-20.966,10.698-33.433,10.698c-31.791,0-57.565-25.773-57.565-57.562
	c0-5.703,0.83-11.212,2.374-16.414"/>
<path fill="none" stroke="#B9E8AC" stroke-width="13" stroke-miterlimit="10" d="M273.127,162.179
	c-8.148,9.433-20.198,15.403-33.642,15.403"/>
<path fill="none" stroke="#F2DF70" stroke-width="13" stroke-miterlimit="10" d="M239.486,164.454
	c-17.291,0-31.308-14.016-31.308-31.305c0-3.102,0.452-6.098,1.291-8.926"/>
<path fill="none" stroke="#97D5E8" stroke-width="13" stroke-miterlimit="10" d="M221.307,133.149
	c0-10.039,8.139-18.177,18.178-18.177"/>
<line fill="none" stroke="#5D5C5C" stroke-miterlimit="10" x1="175.584" y1="227.875" x2="239.487" y2="133.149"/>
<path fill="none" stroke="#5D5C5C" stroke-miterlimit="10" d="M239.487,133.149"/>
<polyline fill="none" stroke="#5D5C5C" stroke-miterlimit="10" points="239.487,133.149 239.487,29.93 239.487,16.558 "/>
<line fill="none" stroke="#5D5C5C" stroke-miterlimit="10" x1="239.487" y1="133.149" x2="351.657" y2="99.238"/>
<path fill="none" stroke="#5D5C5C" stroke-miterlimit="10" d="M310.18,232.249"/>
<path fill="none" stroke="#5D5C5C" stroke-miterlimit="10" d="M239.487,133.149"/>
<line fill="none" stroke="#5D5C5C" stroke-miterlimit="10" x1="239.487" y1="133.149" x2="127.318" y2="99.238"/>
<line fill="none" stroke="#5D5C5C" stroke-miterlimit="10" x1="303.503" y1="227.875" x2="239.6" y2="133.149"/>
</svg>
