<?xml version="1.0" encoding="utf-8"?>
<!-- Generator: Adobe Illustrator 16.0.0, SVG Export Plug-In . SVG Version: 6.00 Build 0)  -->
<!DOCTYPE svg PUBLIC "-//W3C//DTD SVG 1.1//EN" "http://www.w3.org/Graphics/SVG/1.1/DTD/svg11.dtd">
<svg version="1.1" id="Layer_1" xmlns="http://www.w3.org/2000/svg" xmlns:xlink="http://www.w3.org/1999/xlink" x="0px" y="0px"
	 width="1279.92px" height="543.121px" viewBox="0 0 1279.92 543.121" enable-background="new 0 0 1279.92 543.121"
	 xml:space="preserve">
<circle fill="#ABD8D0" cx="1017.179" cy="283.478" r="8.557"/>
<g>
	<text transform="matrix(1 0 0 1 1029.7432 287.3867)" font-family="'AlegreyaSansSC-Thin'" font-size="11.2287">Deep interviews </text>
	
		<text transform="matrix(1 0 0 1 1029.7432 287.3867)" fill="none" stroke="#1C1C1B" stroke-width="0.5" stroke-miterlimit="10" font-family="'AlegreyaSansSC-Thin'" font-size="11.2287">Deep interviews </text>
</g>
<circle fill="#7B91B2" cx="1017.179" cy="354.87" r="8.556"/>
<g>
	<text transform="matrix(1 0 0 1 1029.7432 357.9766)" font-family="'AlegreyaSansSC-Thin'" font-size="11.2287">Concept &amp; Sketching</text>
	
		<text transform="matrix(1 0 0 1 1029.7432 357.9766)" fill="none" stroke="#1C1C1B" stroke-width="0.5" stroke-miterlimit="10" font-family="'AlegreyaSansSC-Thin'" font-size="11.2287">Concept &amp; Sketching</text>
</g>
<circle fill="#EAA486" cx="1017.179" cy="307.276" r="8.555"/>
<g>
	<text transform="matrix(1 0 0 1 1029.7432 310.3818)" font-family="'AlegreyaSansSC-Thin'" font-size="11.2287">Investigating  Data</text>
	
		<text transform="matrix(1 0 0 1 1029.7432 310.3818)" fill="none" stroke="#1C1C1B" stroke-width="0.5" stroke-miterlimit="10" font-family="'AlegreyaSansSC-Thin'" font-size="11.2287">Investigating  Data</text>
</g>
<circle fill="#B9E8AC" cx="1017.177" cy="378.667" r="8.556"/>
<g>
	<text transform="matrix(1 0 0 1 1029.7432 381.7734)" font-family="'AlegreyaSansSC-Thin'" font-size="11.2287">Refine</text>
	
		<text transform="matrix(1 0 0 1 1029.7432 381.7734)" fill="none" stroke="#1C1C1B" stroke-width="0.5" stroke-miterlimit="10" font-family="'AlegreyaSansSC-Thin'" font-size="11.2287">Refine</text>
</g>
<circle fill="#CBCAE5" cx="1017.177" cy="331.072" r="8.556"/>
<g>
	<g>
		<text transform="matrix(1 0 0 1 1029.7432 334.1797)" font-family="'AlegreyaSansSC-Thin'" font-size="11.2287">Brainstorm</text>
		
			<text transform="matrix(1 0 0 1 1029.7432 334.1797)" fill="none" stroke="#1C1C1B" stroke-width="0.5" stroke-miterlimit="10" font-family="'AlegreyaSansSC-Thin'" font-size="11.2287">Brainstorm</text>
	</g>
</g>
<circle fill="#F2DF70" cx="1017.179" cy="402.463" r="8.556"/>
<g>
	<text transform="matrix(1 0 0 1 1029.7432 405.5723)" font-family="'AlegreyaSansSC-Thin'" font-size="11.2287">Design</text>
	
		<text transform="matrix(1 0 0 1 1029.7432 405.5723)" fill="none" stroke="#1C1C1B" stroke-width="0.5" stroke-miterlimit="10" font-family="'AlegreyaSansSC-Thin'" font-size="11.2287">Design</text>
</g>
<path fill="#97D5E8" d="M1017.18,434.818c4.723,0,8.556-3.832,8.556-8.559c0-4.725-3.833-8.555-8.556-8.555
	c-4.729,0-8.557,3.83-8.557,8.555C1008.623,430.986,1012.451,434.818,1017.18,434.818z"/>
<g>
	<text transform="matrix(1 0 0 1 1029.7432 429.3691)" font-family="'AlegreyaSansSC-Thin'" font-size="11.2287">Presentation</text>
	
		<text transform="matrix(1 0 0 1 1029.7432 429.3691)" fill="none" stroke="#1C1C1B" stroke-width="0.5" stroke-miterlimit="10" font-family="'AlegreyaSansSC-Thin'" font-size="11.2287">Presentation</text>
</g>
<path opacity="0.7" fill="none" stroke="#98C881" stroke-width="18" stroke-miterlimit="10" enable-background="new    " d="
	M870.173,287.434"/>
<g>
	<text transform="matrix(1 0 0 1 791.2549 116.5479)" font-family="'AlegreyaSansSC-Thin'" font-size="17">day 5</text>
</g>
<g>
	<text transform="matrix(1 0 0 1 609.5293 236.9746)" font-family="'AlegreyaSansSC-Thin'" font-size="17">day 4</text>
</g>
<g>
	<text transform="matrix(1 0 0 1 690.1689 432.9805)" font-family="'AlegreyaSansSC-Thin'" font-size="17">day 3</text>
</g>
<g>
	<text transform="matrix(1 0 0 1 897.6514 434.4512)" font-family="'AlegreyaSansSC-Thin'" font-size="17">day 2</text>
</g>
<g>
	<text transform="matrix(1 0 0 1 972.2295 236.9746)" font-family="'AlegreyaSansSC-Thin'" font-size="17">day 1</text>
</g>
<path fill="none" stroke="#CBCAE5" stroke-width="18" stroke-miterlimit="10" d="M902.8,256.657
	c2.743,9.091,4.222,18.731,4.222,28.717c0,54.791-44.423,99.211-99.214,99.211c-20.555,0-39.647-6.252-55.485-16.955"/>
<path fill="none" stroke="#ABD8D0" stroke-width="18" stroke-miterlimit="10" d="M807.808,149.318
	c61.054,0,112.718,40.213,129.944,95.597l0.276,0.819"/>
<path fill="none" stroke="#EAA486" stroke-width="18" stroke-miterlimit="10" d="M907.021,222.146
	c5.56,8.703,10.005,18.187,13.136,28.25c3.438,11.05,5.289,22.797,5.289,34.979c0,39.49-19.463,74.438-49.316,95.771l-2.44,1.646"/>
<path fill="none" stroke="#7B91B2" stroke-width="18" stroke-miterlimit="10" d="M885.03,261.576
	c2.315,7.523,3.563,15.517,3.563,23.8c0,27.121-13.364,51.119-33.867,65.771c-13.227,9.451-29.424,15.016-46.92,15.016
	c-44.614,0-80.786-36.17-80.786-80.783c0-8.004,1.163-15.735,3.331-23.036"/>
<path fill="none" stroke="#B9E8AC" stroke-width="18" stroke-miterlimit="10" d="M855.021,326.117
	c-11.437,13.238-28.347,21.617-47.214,21.617"/>
<path fill="none" stroke="#F2DF70" stroke-width="18" stroke-miterlimit="10" d="M807.808,329.311
	c-24.268,0-43.938-19.67-43.938-43.935c0-4.354,0.635-8.56,1.812-12.526"/>
<path fill="none" stroke="#97D5E8" stroke-width="18" stroke-miterlimit="10" d="M782.296,285.376
	c0-14.089,11.422-25.51,25.512-25.51"/>
<line fill="none" stroke="#5D5C5C" stroke-miterlimit="10" x1="718.128" y1="418.316" x2="807.81" y2="285.376"/>
<path fill="none" stroke="#5D5C5C" stroke-miterlimit="10" d="M807.81,285.376"/>
<polyline fill="none" stroke="#5D5C5C" stroke-miterlimit="10" points="807.81,285.376 807.81,140.517 807.81,121.751 "/>
<line fill="none" stroke="#5D5C5C" stroke-miterlimit="10" x1="807.81" y1="285.376" x2="965.231" y2="237.784"/>
<path fill="none" stroke="#5D5C5C" stroke-miterlimit="10" d="M907.021,424.455"/>
<path fill="none" stroke="#5D5C5C" stroke-miterlimit="10" d="M807.81,285.376"/>
<g>
	<text transform="matrix(1 0 0 1 1008.6221 121.752)" fill="#FFFFFF" font-family="'AlternateGotNo3D'" font-size="21.2479">1 week project </text>
</g>
<line fill="none" stroke="#5D5C5C" stroke-miterlimit="10" x1="807.81" y1="285.376" x2="650.39" y2="237.784"/>
<line fill="none" stroke="#5D5C5C" stroke-miterlimit="10" x1="897.651" y1="418.316" x2="807.969" y2="285.376"/>
</svg>
