<?xml version="1.0" encoding="utf-8"?>
<!-- Generator: Adobe Illustrator 16.0.0, SVG Export Plug-In . SVG Version: 6.00 Build 0)  -->
<!DOCTYPE svg PUBLIC "-//W3C//DTD SVG 1.1//EN" "http://www.w3.org/Graphics/SVG/1.1/DTD/svg11.dtd">
<svg version="1.1" id="Layer_1" xmlns="http://www.w3.org/2000/svg" xmlns:xlink="http://www.w3.org/1999/xlink" x="0px" y="0px"
	 width="1279.92px" height="543.121px" viewBox="0 0 1279.92 543.121" enable-background="new 0 0 1279.92 543.121"
	 xml:space="preserve">
<g opacity="0.3">
	<path fill="#FFFFFF" d="M707.001,148.906c-17.814,2.936-30.578,13.399-34.082,30.429c-4.667,22.675-7.097,45.967-8.544,69.117
		c-2.445,39.16,0.064,78.14,7.253,116.854c3.395,18.288,16.044,35.23,34.305,38.124c29.538,4.678,59.278,9.404,89.086,10.729
		c51.24,2.277,102.422,0.545,153.166-9.236c20.459-3.942,34.923-13.78,39.88-33.53c4.798-19.127,8.475-38.944,9.233-58.591
		c1.625-42.056,3.297-84.188-7.059-125.846c-4.814-19.366-14.992-33.524-34.027-38.231c-4.203-1.041-8.665-1.026-13.006-1.523
		c-33.424-3.822-66.763-9.304-100.296-11.074c-45.86-2.421-91.372,3.01-136.248,13.042L707.001,148.906z"/>
	<path d="M706.663,149.169c44.876-10.032,90.388-15.463,136.248-13.042c33.533,1.771,66.872,7.252,100.296,11.075
		c4.34,0.497,8.803,0.483,13.006,1.523c19.036,4.707,29.212,18.865,34.028,38.231c10.354,41.659,8.685,83.789,7.06,125.845
		c-0.759,19.646-4.438,39.465-9.236,58.593c-4.956,19.748-19.419,29.586-39.88,33.529c-50.743,9.781-101.925,11.515-153.165,9.236
		c-29.808-1.325-59.548-6.052-89.086-10.729c-18.26-2.894-30.91-19.833-34.305-38.123c-7.189-38.716-9.699-77.693-7.253-116.854
		c1.446-23.15,3.877-46.442,8.544-69.117c3.504-17.03,16.268-27.493,34.065-30.42c-20.755,8.235-33.494,22.647-33.607,45.72
		c-0.258,52.417,0.008,104.839-0.209,157.259c-0.027,7.023,2.245,9.356,9.344,9.29c33.141-0.308,66.285-0.126,99.426-0.173
		c2.264-0.001,4.527-0.461,8.11-0.852c-2.854-6.201-5.246-11.655-7.849-17.007c-6.903-14.195-11.583-16.888-26.585-13.475
		c-4.698,1.068-9.08,4.316-13.143,7.214c-25.439,18.168-25.699,17.669-46.074-8.567c-0.828-1.066-1.981-2.1-2.273-3.321
		c-0.801-3.302-1.221-6.693-2.23-12.643c5.247,2.832,8.137,4.266,10.898,5.917c2.896,1.729,5.553,4.927,8.528,5.209
		c4.157,0.397,8.516-1.313,12.791-2.123c-1.15-3.103-1.389-7.381-3.609-9.1c-9.853-7.639-9.956-15.539-4.053-25.98
		c6.558-11.605,11.378-24.196,18.092-38.836c-14.093,2.486-25.757,4.545-38.8,6.847c1.312-3.175,1.421-4.456,2.085-4.897
		c14.045-9.321,28.087-18.647,42.337-27.654c1.644-1.041,4.979-1.059,6.676-0.076c8.038,4.651,15.462,2.372,23.286-0.567
		c2.543-0.953,7.267-0.75,8.776,0.923c13.196,14.633,25.896,29.72,40.043,46.189c-15.304,3.086-22.422-10.366-34.713-11.277
		c0.602,3.634,0.896,6.587,1.595,9.442c6.547,26.805,13.149,53.592,19.771,80.38c3.884,15.713,7.602,17.609,24.87,12.213
		c0-32.184,0.303-64.613-0.271-97.028c-0.107-6.187-2.5-13.081-5.893-18.321c-11.331-17.513-10.963-35.788,1.49-50.538
		c5.203-6.164,8.901-5.437,13.682,0.2c11.647,13.74,11.178,36.208-0.581,52.751c-3.03,4.264-5.146,10.168-5.233,15.359
		c-0.49,29.417-0.256,58.843-0.21,88.265c0.004,3.571,0.349,7.142,0.57,11.387c5.191,0,9.26-0.382,13.229,0.079
		c7.772,0.901,10.988-1.655,12.502-9.992c4.318-23.826,10.059-47.39,15.096-71.089c1.604-7.543,2.754-15.186,4.337-24.026
		c-13.651,4.205-22.296,14.944-34.562,16.674c-0.796-1.167-1.593-2.338-2.392-3.507c13.055-15.329,26.108-30.657,39.578-46.479
		c3.54,4.38,5.604,6.936,7.899,9.774c3.494-1.997,6.619-3.784,9.611-5.494c11.055,9.956,10.866,9.84,18.481-2.554
		c1.037-1.686,5.85-2.977,7.548-2.021c12.355,6.954,24.422,14.426,36.404,22.02c1.828,1.16,2.73,3.785,4.059,5.732
		c-0.465,0.918-0.932,1.833-1.396,2.749c-11.723-1.354-23.449-2.706-37.027-4.273c5.479,14.236,10.5,27.281,15.526,40.322
		c3.371,8.742,8.732,17.638-3.632,26.074c4.839,1.732,8.34,2.555,11.638,2.041c2.885-0.446,5.432-2.957,8.328-3.515
		c3.017-0.58,6.273,0.087,9.428,0.208c-0.751,3.071-0.698,6.729-2.422,9.092c-3.361,4.606-7.559,8.646-11.688,12.632
		c-10.786,10.415-16.23,10.807-28.019,1.281c-7.011-5.667-13.389-12.11-19.553-17.75c-7.685,5.204-16.59,8.485-20.868,14.868
		c-4.75,7.076-5.272,16.986-7.577,25.442c1.597,0.801,2.189,1.361,2.788,1.365c33.475,0.136,66.952,0.373,100.421-0.022
		c2.187-0.026,6.177-4.917,6.194-7.565c0.352-52.755,0.854-105.523-0.031-158.267c-0.447-26.815-18.332-45.808-41.832-45.88
		C866.282,148.714,786.471,149.055,706.663,149.169z M986.189,364.584c-4.359-0.199-7.986-0.5-11.612-0.507
		c-24.339-0.041-48.678,0.127-73.015-0.082c-12.724-0.109-25.654-1.915-33.21,12.366c-1.097,2.068-5.891,3.292-8.682,2.888
		c-1.405-0.202-3.068-4.95-3.02-7.616c0.114-6.749-3.579-7.551-9.032-7.65c-13.691-0.244-13.674-0.415-14.246,13.372
		c-0.045,1.103-0.472,2.188-1.126,5.061c-4.371-19.895-6.437-21.358-18.374-17.02c-2.321,5.571-4.036,9.687-5.75,13.798
		c-4.297-2.97-8.471-6.145-12.928-8.85c-3.91-2.372-8.113-5.954-12.229-6.018c-32.445-0.495-64.896-0.293-97.349-0.242
		c-3.231,0.006-6.466,0.431-9.639,0.657c0.449,19.363,19.228,36.095,40.786,36.699c16.213,0.456,32.448,0.176,48.674,0.173
		c58.815-0.009,117.633,0.062,176.451-0.11C964.958,401.436,982.065,387.5,986.189,364.584z M834.224,194.274
		c0,17.209,0,32.96,0,49.415C848.598,230.861,848.813,207.996,834.224,194.274z M829.66,196.455
		c-14.238,11.281-14.193,33.083,0,45.5C829.66,226.579,829.66,211.836,829.66,196.455z"/>
	<path fill="#FFFFFF" d="M706.663,149.169c79.808-0.115,159.619-0.456,239.427-0.203c23.499,0.073,41.385,19.067,41.832,45.881
		c0.885,52.743,0.383,105.511,0.03,158.266c-0.018,2.648-4.007,7.541-6.193,7.566c-33.47,0.395-66.947,0.155-100.421,0.021
		c-0.599-0.004-1.193-0.564-2.788-1.365c2.303-8.456,2.828-18.365,7.576-25.441c4.279-6.384,13.185-9.664,20.867-14.868
		c6.167,5.64,12.542,12.085,19.553,17.75c11.789,9.525,17.233,9.133,28.021-1.281c4.129-3.986,8.326-8.025,11.688-12.633
		c1.725-2.361,1.671-6.019,2.422-9.091c-3.156-0.121-6.411-0.788-9.429-0.209c-2.896,0.559-5.442,3.07-8.327,3.516
		c-3.297,0.514-6.798-0.31-11.638-2.041c12.364-8.437,7.002-17.332,3.631-26.074c-5.025-13.041-10.046-26.087-15.526-40.322
		c13.578,1.567,25.304,2.919,37.027,4.272c0.465-0.915,0.931-1.831,1.396-2.749c-1.33-1.946-2.23-4.571-4.061-5.732
		c-11.979-7.594-24.048-15.065-36.401-22.019c-1.699-0.955-6.512,0.335-7.549,2.021c-7.615,12.394-7.428,12.51-18.481,2.554
		c-2.992,1.71-6.118,3.499-9.611,5.494c-2.296-2.837-4.359-5.394-7.899-9.774c-13.47,15.821-26.526,31.149-39.578,46.479
		c0.799,1.167,1.595,2.337,2.392,3.507c12.266-1.73,20.91-12.47,34.56-16.675c-1.581,8.84-2.73,16.483-4.337,24.026
		c-5.035,23.698-10.775,47.262-15.095,71.088c-1.513,8.338-4.73,10.895-12.502,9.993c-3.969-0.461-8.036-0.079-13.228-0.079
		c-0.222-4.248-0.567-7.815-0.571-11.387c-0.045-29.422-0.28-58.85,0.21-88.265c0.087-5.192,2.203-11.097,5.234-15.36
		c11.761-16.543,12.229-39.011,0.579-52.751c-4.779-5.638-8.478-6.363-13.682-0.201c-12.452,14.75-12.82,33.025-1.488,50.539
		c3.391,5.24,5.783,12.134,5.892,18.321c0.574,32.415,0.271,64.845,0.271,97.028c-17.269,5.396-20.985,3.5-24.869-12.214
		c-6.622-26.787-13.226-53.575-19.771-80.379c-0.698-2.855-0.995-5.809-1.596-9.443c12.292,0.912,19.41,14.364,34.713,11.277
		c-14.146-16.469-26.846-31.557-40.043-46.189c-1.51-1.674-6.234-1.876-8.775-0.923c-7.824,2.938-15.248,5.216-23.286,0.567
		c-1.696-0.983-5.033-0.965-6.677,0.076c-14.249,9.006-28.29,18.332-42.336,27.653c-0.664,0.442-0.773,1.722-2.085,4.897
		c13.043-2.301,24.706-4.36,38.8-6.847c-6.714,14.64-11.536,27.23-18.092,38.836c-5.901,10.441-5.799,18.341,4.052,25.98
		c2.221,1.719,2.458,5.998,3.61,9.099c-4.274,0.81-8.633,2.521-12.792,2.124c-2.975-0.282-5.631-3.479-8.529-5.208
		c-2.762-1.652-5.65-3.086-10.896-5.918c1.009,5.948,1.43,9.341,2.23,12.643c0.293,1.221,1.444,2.255,2.273,3.32
		c20.375,26.236,20.634,26.735,46.074,8.568c4.062-2.898,8.445-6.146,13.143-7.215c15.002-3.412,19.682-0.721,26.585,13.476
		c2.602,5.352,4.994,10.806,7.848,17.006c-3.583,0.392-5.845,0.851-8.109,0.853c-33.141,0.047-66.285-0.136-99.426,0.173
		c-7.1,0.066-9.371-2.267-9.343-9.29c0.216-52.42-0.05-104.841,0.208-157.259c0.115-23.073,12.852-37.484,33.606-45.719
		C707.001,148.906,706.663,149.169,706.663,149.169z M732.468,188.134c2.244,12.25,16.255,27.447,26.634,27.37
		c3.196-0.024,8.072-1.901,9.212-4.324c2.546-5.418,2.626-11.945,4.809-17.597c3.166-8.199,1.604-16.129-5.51-19.225
		c-6.608-2.873-15.864-3.441-22.574-1.092C739.761,175.115,736.581,182.956,732.468,188.134z M896.902,169.724
		c-13.262-0.035-14.756,4.327-18.237,16.325c-4.812,16.583,6.218,22.305,15.433,29.862c5.412,4.441,12.948,0.486,14.198-6.721
		c1.19-6.873,2.384-13.747,3.767-20.582C914.115,178.44,907.208,169.75,896.902,169.724z M822.18,325.19
		c6.773-16.892-5.582-46.937-22.087-48.602C792.466,295.117,802.799,318.479,822.18,325.19z M842.013,327.212
		c19.428-5.642,30.91-33.221,20.921-48.754C844.517,288.493,836.167,307.512,842.013,327.212z"/>
	<path fill="#FFFFFF" d="M986.189,364.584c-4.124,22.916-21.23,36.852-44.299,36.918c-58.818,0.17-117.636,0.102-176.451,0.11
		c-16.226,0.004-32.461,0.281-48.674-0.173c-21.559-0.605-40.338-17.336-40.786-36.698c3.173-0.227,6.407-0.651,9.639-0.659
		c32.452-0.049,64.903-0.252,97.349,0.243c4.115,0.063,8.318,3.646,12.229,6.017c4.457,2.707,8.631,5.881,12.928,8.852
		c1.714-4.112,3.429-8.229,5.75-13.8c11.938-4.34,14.003-2.875,18.374,17.02c0.654-2.872,1.081-3.957,1.126-5.061
		c0.57-13.786,0.555-13.616,14.246-13.37c5.453,0.097,9.146,0.9,9.032,7.65c-0.049,2.666,1.614,7.413,3.02,7.614
		c2.794,0.406,7.585-0.817,8.682-2.886c7.556-14.283,20.486-12.477,33.21-12.367c24.337,0.21,48.676,0.042,73.015,0.083
		C978.202,364.084,981.829,364.385,986.189,364.584z"/>
	<path fill="#FFFFFF" d="M834.224,194.274c14.589,13.722,14.374,36.588,0,49.415C834.224,227.234,834.224,211.483,834.224,194.274z"
		/>
	<path fill="#FFFFFF" d="M829.66,196.455c0,15.381,0,30.124,0,45.5C815.468,229.538,815.422,207.736,829.66,196.455z"/>
	<path d="M732.468,188.134c4.113-5.178,7.293-13.02,12.571-14.867c6.711-2.349,15.966-1.781,22.574,1.092
		c7.114,3.096,8.675,11.026,5.51,19.225c-2.184,5.651-2.263,12.178-4.808,17.597c-1.14,2.424-6.017,4.3-9.213,4.324
		C748.723,215.581,734.712,200.384,732.468,188.134z"/>
	<path d="M896.902,169.724c10.305,0.026,17.213,8.718,15.157,18.885c-1.382,6.835-2.574,13.709-3.765,20.582
		c-1.251,7.208-8.785,11.162-14.199,6.721c-9.215-7.557-20.244-13.279-15.432-29.862
		C882.146,174.051,883.64,169.689,896.902,169.724z"/>
	<path d="M822.18,325.19c-19.38-6.71-29.714-30.073-22.087-48.602C816.596,278.254,828.953,308.299,822.18,325.19z M802.529,280.437
		c-5.992,15.703,4.994,38.105,19.401,39.23C820.29,304.355,818.573,289.562,802.529,280.437z"/>
	<path d="M842.013,327.212c-5.845-19.699,2.504-38.718,20.921-48.754C872.923,293.991,861.441,321.57,842.013,327.212z
		 M861.799,283.172c-14.128,8.563-20.95,23.928-18.02,39.513C857.687,318.581,867.215,298.293,861.799,283.172z"/>
	<path fill="#FFFFFF" d="M802.529,280.437c16.045,9.126,17.762,23.92,19.401,39.23C807.523,318.541,796.538,296.14,802.529,280.437z
		"/>
	<path fill="#FFFFFF" d="M861.799,283.172c5.414,15.121-4.112,35.407-18.02,39.513C840.849,307.1,847.671,291.737,861.799,283.172z"
		/>
</g>
</svg>
