<?xml version="1.0" encoding="utf-8"?>
<!-- Generator: Adobe Illustrator 16.0.0, SVG Export Plug-In . SVG Version: 6.00 Build 0)  -->
<!DOCTYPE svg PUBLIC "-//W3C//DTD SVG 1.1//EN" "http://www.w3.org/Graphics/SVG/1.1/DTD/svg11.dtd">
<svg version="1.1" id="Layer_1" xmlns="http://www.w3.org/2000/svg" xmlns:xlink="http://www.w3.org/1999/xlink" x="0px" y="0px"
	 width="1279.92px" height="543.121px" viewBox="0 0 1279.92 543.121" enable-background="new 0 0 1279.92 543.121"
	 xml:space="preserve">
<circle fill="#ABD8D0" cx="1017.179" cy="283.478" r="8.557"/>
<g>
	<text transform="matrix(1 0 0 1 1029.7432 287.3857)" font-family="'AlegreyaSansSC-Thin'" font-size="11.2287">Deep interviews </text>
	
		<text transform="matrix(1 0 0 1 1029.7432 287.3857)" fill="none" stroke="#1C1C1B" stroke-width="0.5" stroke-miterlimit="10" font-family="'AlegreyaSansSC-Thin'" font-size="11.2287">Deep interviews </text>
</g>
<circle fill="#7B91B2" cx="1017.179" cy="354.87" r="8.556"/>
<g>
	<text transform="matrix(1 0 0 1 1029.7432 357.9766)" font-family="'AlegreyaSansSC-Thin'" font-size="11.2287">Concept &amp; Sketching</text>
	
		<text transform="matrix(1 0 0 1 1029.7432 357.9766)" fill="none" stroke="#1C1C1B" stroke-width="0.5" stroke-miterlimit="10" font-family="'AlegreyaSansSC-Thin'" font-size="11.2287">Concept &amp; Sketching</text>
</g>
<circle fill="#EAA486" cx="1017.179" cy="307.276" r="8.555"/>
<g>
	<text transform="matrix(1 0 0 1 1029.7432 310.3818)" font-family="'AlegreyaSansSC-Thin'" font-size="11.2287">Investigating  Data</text>
	
		<text transform="matrix(1 0 0 1 1029.7432 310.3818)" fill="none" stroke="#1C1C1B" stroke-width="0.5" stroke-miterlimit="10" font-family="'AlegreyaSansSC-Thin'" font-size="11.2287">Investigating  Data</text>
</g>
<circle fill="#B9E8AC" cx="1017.177" cy="378.667" r="8.556"/>
<g>
	<text transform="matrix(1 0 0 1 1029.7432 381.7734)" font-family="'AlegreyaSansSC-Thin'" font-size="11.2287">Refine</text>
	
		<text transform="matrix(1 0 0 1 1029.7432 381.7734)" fill="none" stroke="#1C1C1B" stroke-width="0.5" stroke-miterlimit="10" font-family="'AlegreyaSansSC-Thin'" font-size="11.2287">Refine</text>
</g>
<circle fill="#CBCAE5" cx="1017.177" cy="331.072" r="8.556"/>
<g>
	<g>
		<text transform="matrix(1 0 0 1 1029.7432 334.1787)" font-family="'AlegreyaSansSC-Thin'" font-size="11.2287">Brainstorm</text>
		
			<text transform="matrix(1 0 0 1 1029.7432 334.1787)" fill="none" stroke="#1C1C1B" stroke-width="0.5" stroke-miterlimit="10" font-family="'AlegreyaSansSC-Thin'" font-size="11.2287">Brainstorm</text>
	</g>
</g>
<circle fill="#F2DF70" cx="1017.179" cy="402.463" r="8.556"/>
<g>
	<text transform="matrix(1 0 0 1 1029.7432 405.5723)" font-family="'AlegreyaSansSC-Thin'" font-size="11.2287">Design</text>
	
		<text transform="matrix(1 0 0 1 1029.7432 405.5723)" fill="none" stroke="#1C1C1B" stroke-width="0.5" stroke-miterlimit="10" font-family="'AlegreyaSansSC-Thin'" font-size="11.2287">Design</text>
</g>
<path fill="#97D5E8" d="M1017.18,434.818c4.723,0,8.556-3.832,8.556-8.558c0-4.725-3.833-8.555-8.556-8.555
	c-4.728,0-8.557,3.83-8.557,8.555C1008.623,430.986,1012.452,434.818,1017.18,434.818z"/>
<g>
	<text transform="matrix(1 0 0 1 1029.7432 429.3691)" font-family="'AlegreyaSansSC-Thin'" font-size="11.2287">Presentation</text>
	
		<text transform="matrix(1 0 0 1 1029.7432 429.3691)" fill="none" stroke="#1C1C1B" stroke-width="0.5" stroke-miterlimit="10" font-family="'AlegreyaSansSC-Thin'" font-size="11.2287">Presentation</text>
</g>
<g>
	<text transform="matrix(1 0 0 1 1008.6221 121.752)" fill="#FFFFFF" font-family="'AlternateGotNo3D'" font-size="21.2479">5 weeks project</text>
</g>
<path fill="none" stroke="#CBCAE5" stroke-width="18" stroke-miterlimit="10" d="M911.567,283.904
	c0,54.791-44.423,99.211-99.214,99.211"/>
<path fill="none" stroke="#EAA486" stroke-width="18" stroke-miterlimit="10" d="M812.354,166.271
	c64.968,0,117.64,52.667,117.64,117.633c0,64.967-52.672,117.635-117.64,117.635c-64.965,0-117.637-52.668-117.637-117.635"/>
<path fill="none" stroke="#7B91B2" stroke-width="18" stroke-miterlimit="10" d="M889.703,260.521
	c2.236,7.402,3.438,15.254,3.438,23.385c0,44.615-36.17,80.783-80.787,80.783c-44.614,0-80.786-36.168-80.786-80.783"/>
<path fill="none" stroke="#B9E8AC" stroke-width="18" stroke-miterlimit="10" d="M753.11,303.43
	c-2.022-6.142-3.117-12.705-3.117-19.521c0-16.837,6.672-32.116,17.519-43.334"/>
<path fill="none" stroke="#F2DF70" stroke-width="18" stroke-miterlimit="10" d="M856.291,283.906
	c0,24.264-19.674,43.934-43.938,43.934c-24.267,0-43.938-19.67-43.938-43.934c0-4.354,0.633-8.559,1.812-12.529"/>
<path opacity="0.7" fill="none" stroke="#F6DA05" stroke-width="18" stroke-miterlimit="10" enable-background="new    " d="
	M812.354,239.971"/>
<path fill="none" stroke="#97D5E8" stroke-width="18" stroke-miterlimit="10" d="M837.865,283.906
	c0,14.088-11.422,25.51-25.513,25.51c-14.09,0-25.512-11.422-25.512-25.51c0-14.09,11.422-25.51,25.512-25.51"/>
<g>
	<text transform="matrix(1 0 0 1 795.7998 115.0771)" font-family="'AlegreyaSansSC-Thin'" font-size="17">week 5</text>
</g>
<g>
	<text transform="matrix(1 0 0 1 604.7671 236.1064)" font-family="'AlegreyaSansSC-Thin'" font-size="17">week 4</text>
</g>
<g>
	<text transform="matrix(1 0 0 1 670.0459 433.3135)" font-family="'AlegreyaSansSC-Thin'" font-size="17">week 3</text>
</g>
<g>
	<text transform="matrix(1 0 0 1 911.5674 433.3135)" font-family="'AlegreyaSansSC-Thin'" font-size="17">week 2</text>
</g>
<g>
	<text transform="matrix(1 0 0 1 972.2295 236.1064)" font-family="'AlegreyaSansSC-Thin'" font-size="17">week 1</text>
</g>
<path fill="none" stroke="#5D5C5C" stroke-width="18" stroke-miterlimit="10" d="M812.354,283.904"/>
<path fill="none" stroke="#5D5C5C" stroke-miterlimit="10" d="M722.671,416.845"/>
<path fill="none" stroke="#5D5C5C" stroke-width="18" stroke-miterlimit="10" d="M812.354,283.904"/>
<path fill="none" stroke="#5D5C5C" stroke-miterlimit="10" d="M637.49,231.9"/>
<polyline fill="none" stroke="#5D5C5C" stroke-miterlimit="10" points="812.354,283.904 812.354,139.045 812.354,120.28 "/>
<line fill="none" stroke="#5D5C5C" stroke-miterlimit="10" x1="812.354" y1="283.904" x2="969.774" y2="236.312"/>
<line fill="none" stroke="#5D5C5C" stroke-miterlimit="10" x1="812.354" y1="283.904" x2="907.296" y2="417.001"/>
<line fill="none" stroke="#5D5C5C" stroke-miterlimit="10" x1="812.354" y1="283.904" x2="654.935" y2="236.314"/>
<line fill="none" stroke="#5D5C5C" stroke-miterlimit="10" x1="717.365" y1="417.068" x2="812.354" y2="283.904"/>
</svg>
