<?xml version="1.0" encoding="utf-8"?>
<!-- Generator: Adobe Illustrator 16.0.0, SVG Export Plug-In . SVG Version: 6.00 Build 0)  -->
<!DOCTYPE svg PUBLIC "-//W3C//DTD SVG 1.1//EN" "http://www.w3.org/Graphics/SVG/1.1/DTD/svg11.dtd">
<svg version="1.1" id="Layer_1" xmlns="http://www.w3.org/2000/svg" xmlns:xlink="http://www.w3.org/1999/xlink" x="0px" y="0px"
	 width="640px" height="549.333px" viewBox="0 -26.613 640 549.333" enable-background="new 0 -26.613 640 549.333"
	 xml:space="preserve">
<circle fill="#ABD8D0" cx="431.045" cy="25.937" r="8.317"/>
<g>
	<text transform="matrix(1 0 0 1 444.9983 30.1084)" font-family="'AlegreyaSansSC-Thin'" font-size="14">Deep interviews </text>
	
		<text transform="matrix(1 0 0 1 444.9983 30.1084)" fill="none" stroke="#1C1C1B" stroke-width="0.5" stroke-miterlimit="10" font-family="'AlegreyaSansSC-Thin'" font-size="14">Deep interviews </text>
</g>
<circle fill="#7B91B2" cx="431.045" cy="123.527" r="8.316"/>
<g>
	<g>
		
			<text transform="matrix(1 0 0 1 444.9983 127.6934)" fill="none" stroke="#1C1C1B" stroke-width="0.5" stroke-miterlimit="10" font-family="'AlegreyaSansSC-Thin'" font-size="14">Concept &amp; Sketching</text>
		
			<text transform="matrix(1 0 0 1 444.9983 127.6934)" fill="none" stroke="#1C1C1B" stroke-width="0.5" stroke-miterlimit="10" font-family="'AlegreyaSansSC-Thin'" font-size="14">Concept &amp; Sketching</text>
	</g>
</g>
<circle fill="#EAA486" cx="431.045" cy="58.467" r="8.316"/>
<g>
	<g>
		
			<text transform="matrix(1 0 0 1 444.9983 62.6367)" fill="none" stroke="#1C1C1B" stroke-width="0.5" stroke-miterlimit="10" font-family="'AlegreyaSansSC-Thin'" font-size="14">Investigating  Data</text>
		
			<text transform="matrix(1 0 0 1 444.9983 62.6367)" fill="none" stroke="#1C1C1B" stroke-width="0.5" stroke-miterlimit="10" font-family="'AlegreyaSansSC-Thin'" font-size="14">Investigating  Data</text>
	</g>
</g>
<circle fill="#B9E8AC" cx="431.043" cy="156.057" r="8.317"/>
<g>
	<g>
		
			<text transform="matrix(1 0 0 1 444.9983 160.2217)" fill="none" stroke="#1C1C1B" stroke-width="0.5" stroke-miterlimit="10" font-family="'AlegreyaSansSC-Thin'" font-size="14">Refine</text>
		
			<text transform="matrix(1 0 0 1 444.9983 160.2217)" fill="none" stroke="#1C1C1B" stroke-width="0.5" stroke-miterlimit="10" font-family="'AlegreyaSansSC-Thin'" font-size="14">Refine</text>
	</g>
</g>
<circle fill="#CBCAE5" cx="431.043" cy="90.997" r="8.317"/>
<g>
	<g>
		<g>
			
				<text transform="matrix(1 0 0 1 444.9983 95.165)" fill="none" stroke="#1C1C1B" stroke-width="0.5" stroke-miterlimit="10" font-family="'AlegreyaSansSC-Thin'" font-size="14">Brainstorm</text>
			
				<text transform="matrix(1 0 0 1 444.9983 95.165)" fill="none" stroke="#1C1C1B" stroke-width="0.5" stroke-miterlimit="10" font-family="'AlegreyaSansSC-Thin'" font-size="14">Brainstorm</text>
		</g>
	</g>
</g>
<circle fill="#F2DF70" cx="431.045" cy="188.588" r="8.317"/>
<g>
	<g>
		
			<text transform="matrix(1 0 0 1 444.9983 192.75)" fill="none" stroke="#1C1C1B" stroke-width="0.5" stroke-miterlimit="10" font-family="'AlegreyaSansSC-Thin'" font-size="14">Design</text>
		
			<text transform="matrix(1 0 0 1 444.9983 192.75)" fill="none" stroke="#1C1C1B" stroke-width="0.5" stroke-miterlimit="10" font-family="'AlegreyaSansSC-Thin'" font-size="14">Design</text>
	</g>
</g>
<path fill="#97D5E8" d="M431.044,229.435c4.59,0,8.313-3.726,8.313-8.317c0-4.593-3.725-8.316-8.313-8.316
	c-4.597,0-8.318,3.723-8.318,8.316C422.726,225.709,426.448,229.435,431.044,229.435z"/>
<g>
	<g>
		
			<text transform="matrix(1 0 0 1 444.9983 225.2773)" fill="none" stroke="#1C1C1B" stroke-width="0.5" stroke-miterlimit="10" font-family="'AlegreyaSansSC-Thin'" font-size="14">Presentation</text>
		
			<text transform="matrix(1 0 0 1 444.9983 225.2773)" fill="none" stroke="#1C1C1B" stroke-width="0.5" stroke-miterlimit="10" font-family="'AlegreyaSansSC-Thin'" font-size="14">Presentation</text>
	</g>
</g>
<path fill="none" stroke="#CBCAE5" stroke-width="15" stroke-miterlimit="10" d="M322.139,135.36
	c0,46.078-37.358,83.434-83.437,83.434"/>
<path fill="none" stroke="#EAA486" stroke-width="15" stroke-miterlimit="10" d="M238.702,36.433
	c54.636,0,98.932,44.291,98.932,98.927c0,54.635-44.296,98.928-98.932,98.928c-54.634,0-98.93-44.292-98.93-98.928"/>
<path fill="none" stroke="#7B91B2" stroke-width="15" stroke-miterlimit="10" d="M303.752,115.695
	c1.881,6.225,2.891,12.828,2.891,19.666c0,37.521-30.417,67.937-67.939,67.937c-37.521,0-67.94-30.417-67.94-67.937"/>
<path fill="none" stroke="#B9E8AC" stroke-width="15" stroke-miterlimit="10" d="M188.88,151.78
	c-1.701-5.164-2.622-10.685-2.622-16.417c0-14.16,5.611-27.009,14.733-36.443"/>
<path fill="none" stroke="#F2DF70" stroke-width="15" stroke-miterlimit="10" d="M275.653,135.361
	c0,20.405-16.545,36.947-36.951,36.947c-20.407,0-36.95-16.542-36.95-36.947c0-3.661,0.532-7.198,1.523-10.537"/>
<path opacity="0.7" fill="none" stroke="#F6DA05" stroke-width="18" stroke-miterlimit="10" enable-background="new    " d="
	M238.702,98.413"/>
<path fill="none" stroke="#97D5E8" stroke-width="15" stroke-miterlimit="10" d="M260.157,135.361
	c0,11.848-9.605,21.453-21.455,21.453c-11.849,0-21.455-9.605-21.455-21.453c0-11.849,9.605-21.453,21.455-21.453"/>
<g>
	<g>
		
			<text transform="matrix(1 0 0 1 224.782 -8.6201)" fill="none" stroke="#1C1C1B" stroke-width="0.5" stroke-miterlimit="10" font-family="'AlegreyaSansSC-Thin'" font-size="14">week 5</text>
	</g>
</g>
<g>
	<g>
		
			<text transform="matrix(1 0 0 1 64.1272 95.1636)" fill="none" stroke="#1C1C1B" stroke-width="0.5" stroke-miterlimit="10" font-family="'AlegreyaSansSC-Thin'" font-size="14">week 4</text>
	</g>
</g>
<g>
	<g>
		
			<text transform="matrix(1 0 0 1 119.0256 261.0093)" fill="none" stroke="#1C1C1B" stroke-width="0.5" stroke-miterlimit="10" font-family="'AlegreyaSansSC-Thin'" font-size="14">week 3</text>
	</g>
</g>
<g>
	<g>
		
			<text transform="matrix(1 0 0 1 322.1399 261.0093)" fill="none" stroke="#1C1C1B" stroke-width="0.5" stroke-miterlimit="10" font-family="'AlegreyaSansSC-Thin'" font-size="14">week 2</text>
	</g>
</g>
<g>
	<g>
		
			<text transform="matrix(1 0 0 1 373.1545 95.1636)" fill="none" stroke="#1C1C1B" stroke-width="0.5" stroke-miterlimit="10" font-family="'AlegreyaSansSC-Thin'" font-size="14">week 1</text>
	</g>
</g>
<path fill="none" stroke="#5D5C5C" stroke-width="18" stroke-miterlimit="10" d="M238.702,135.36"/>
<path fill="none" stroke="#5D5C5C" stroke-miterlimit="10" d="M163.281,247.16"/>
<path fill="none" stroke="#5D5C5C" stroke-width="18" stroke-miterlimit="10" d="M238.702,135.36"/>
<polyline fill="none" stroke="#5D5C5C" stroke-miterlimit="10" points="238.702,135.36 238.702,13.536 238.702,-2.244 "/>
<line fill="none" stroke="#5D5C5C" stroke-miterlimit="10" x1="238.702" y1="135.36" x2="371.089" y2="95.336"/>
<line fill="none" stroke="#5D5C5C" stroke-miterlimit="10" x1="238.702" y1="135.36" x2="318.547" y2="247.292"/>
<line fill="none" stroke="#5D5C5C" stroke-miterlimit="10" x1="238.702" y1="135.36" x2="106.317" y2="95.338"/>
<line fill="none" stroke="#5D5C5C" stroke-miterlimit="10" x1="158.82" y1="247.348" x2="238.702" y2="135.36"/>
</svg>
