<?xml version="1.0" encoding="utf-8"?>
<!-- Generator: Adobe Illustrator 16.0.0, SVG Export Plug-In . SVG Version: 6.00 Build 0)  -->
<!DOCTYPE svg PUBLIC "-//W3C//DTD SVG 1.1//EN" "http://www.w3.org/Graphics/SVG/1.1/DTD/svg11.dtd">
<svg version="1.1" id="Layer_1" xmlns="http://www.w3.org/2000/svg" xmlns:xlink="http://www.w3.org/1999/xlink" x="0px" y="0px"
	 width="1139.943px" height="543.121px" viewBox="0 0 1139.943 543.121" enable-background="new 0 0 1139.943 543.121"
	 xml:space="preserve">
<g>
	<path fill="#FFFFFF" d="M654.448,290.439c-0.423-0.316-0.844-0.637-1.265-0.955c-0.969,0.748-2.208,1.306-2.863,2.267
		c-8.791,12.911-22.03,13.267-35.571,12.598c-3.165-0.155-4.871-2.135-3.999-5.447c2.384-9.053,4.874-18.074,7.336-27.169
		c3.148,0,5.792-0.016,8.438,0.009c0.994,0.009,1.991,0.059,2.978,0.174c5.996,0.697,7.058,2.09,6.533,7.963
		c-0.102,1.137,0.555,2.341,0.859,3.513c0.438-0.077,0.877-0.155,1.314-0.231c2.249-7.771,4.539-15.527,6.678-23.328
		c0.23-0.834-0.438-1.915-0.688-2.882c-0.38-0.151-0.758-0.303-1.135-0.455c-3.715,13.103-14.256,10.264-23.909,11.375
		c1.271-4.81,2.36-8.951,3.465-13.085c4.702-17.571,5.478-18.073,23.742-15.371c8.705,1.288,9.526,2.219,9.909,11.006
		c0.021,0.504,0.483,0.988,0.744,1.482c0.429,0.016,0.855,0.031,1.288,0.047c1.055-5.507,2.111-11.014,3.221-16.815
		c-18.502,0-36.671,0-54.968,0c8.418,3.14,8.587,3.44,6.209,12.545c-4.182,16.01-8.426,32.002-12.587,48.018
		c-1.394,5.363-2.331,10.966-9.197,12.549c18.067,0.312,35.812,0.335,53.556,0.258c1.149-0.003,2.997-0.491,3.33-1.265
		C650.233,301.715,652.289,296.057,654.448,290.439z M906.125,351.726c8.713,1.02,8.981,1.423,7.193,8.903
		c-0.23,0.964-0.479,1.926-0.733,2.884c-3.04,11.409-6.079,22.818-9.139,34.306c7.967,0.676,7.957,0.674,9.902-6.119
		c0.639-2.226,1.224-4.474,2.027-6.64c4.222-11.331,10.405-21.434,19.547-29.45c1.472-1.292,4.133-1.232,6.244-1.796
		c0.365,2.001,1.389,4.144,0.983,5.975c-1.607,7.255-3.735,14.394-5.518,21.611c-1.024,4.153-2.243,8.359-2.384,12.576
		c-0.053,1.654,2.326,4.451,4.071,4.907c4.944,1.291,14.721-8.085,14.671-13.838c-3.009,3.31-5.881,6.469-8.75,9.629
		c-0.561-0.24-1.122-0.483-1.683-0.724c0.128-1.768-0.018-3.605,0.423-5.293c2.509-9.594,5.25-19.125,7.704-28.729
		c0.898-3.52,1.723-7.445-1.857-10.062c-3.686-2.688-7.664-1.848-11.151,0.504c-2.717,1.832-5.328,3.976-7.506,6.409
		c-3.663,4.091-6.943,8.522-10.986,13.564c2.018-7.821,3.79-14.698,5.695-22.079C918.408,349.458,912.933,350.469,906.125,351.726z
		 M914.115,191.726c-3.825-0.386-7.386-0.526-10.863-1.144c-6.094-1.084-11.649-0.626-15.663,4.731
		c-3.45,4.602-2.962,9.844,1.393,16.051c3.234,4.611,6.774,9.011,9.901,13.688c2.221,3.321,2.105,6.996-0.21,10.279
		c-2.373,3.363-5.919,4.102-9.747,3.305c-4.203-0.875-7.062-3.456-8.564-7.504c-0.727-1.958-1.468-3.912-2.704-7.205
		c-0.854,6.434-1.52,11.441-2.041,15.359c3.759,0.402,7.233,0.561,10.618,1.179c8.28,1.51,16.705-1.327,20.26-7.333
		c4.054-6.85,0.986-12.716-2.969-18.35c-2.762-3.931-5.566-7.833-8.34-11.755c-1.985-2.802-2.88-5.789-0.333-8.625
		c2.536-2.827,6.177-3.387,9.03-1.339c2.611,1.877,4.441,4.972,6.274,7.756c0.844,1.283,0.871,3.103,1.27,4.68
		c0.3-0.058,0.599-0.114,0.896-0.171C912.968,200.441,913.609,195.551,914.115,191.726z M822.151,278.806
		c-1.478,4.818,1.827,3.852,4.046,3.853c30.184,0.031,60.37,0.022,90.557,0.022c16.089,0,32.175-0.003,48.264,0.003
		c2.568,0,5.42,0.274,3.215-3.88C919.651,278.806,871.076,278.806,822.151,278.806z M790.629,271.07c-17.358,0-34.325,0-51.328,0
		c0,2.594,0,4.854,0,7.371c17.178,0,34.146,0,51.328,0C790.629,275.94,790.629,273.681,790.629,271.07z M790.844,286.005
		c-17.593,0-34.558,0-51.532,0c0,2.608,0,4.868,0,7.365c17.185,0,34.149,0,51.345,0c0.072-1.031,0.168-1.822,0.181-2.616
		C790.865,289.279,790.844,287.805,790.844,286.005z M686.496,333.837c-1.587-1.396-3.277-2.218-3.828-3.524
		c-0.948-2.241-1.231-4.775-1.712-7.203c-0.852-4.276,2.688-8.024,7.187-7.847c0.964,0.037,2.018-0.541,2.896-1.062
		c0.21-0.125,0.067-1.567-0.235-1.708c-0.979-0.455-2.241-1.014-3.148-0.738c-1.347,0.416-2.564,1.415-3.689,2.344
		c-1.306,1.081-2.449,2.355-3.958,3.835c-1.075-3.71-1.212-7.443-6.381-5.98c3.441,6.554,4.436,13.054-0.582,19.271
		c1.322-1.53,2.643-3.058,4.115-4.76C681.72,338.211,681.992,338.387,686.496,333.837z M694.055,300.147
		c-0.002-0.333-0.006-0.663-0.01-0.996c-8.14,0-16.278,0-24.418,0c0.005,0.333,0.01,0.663,0.018,0.996
		C677.781,300.147,685.917,300.147,694.055,300.147z"/>
	<path fill="#FF9700" d="M867.491,406.105c-6.482-15.508-12.961-31.021-19.48-46.628c-6.197,2.721-11.8,5.183-18.39,8.076
		c0.235-2.769-0.018-4.597,0.473-4.824c6.295-2.927,12.602-5.881,19.108-8.274c3.302-1.215,5.1,0.891,6.435,4.211
		c5.074,12.626,10.54,25.094,15.893,37.61c0.233,0.551,0.762,0.974,1.527,1.928c6.191-27.626,12.266-54.703,18.322-81.782
		c1.377-6.169,2.506-12.4,4.168-18.489c0.366-1.35,2.491-3.15,3.823-3.164c19.563-0.204,39.133-0.182,58.698-0.035
		c1.145,0.009,2.276,1.521,3.415,2.335c-0.27,0.466-0.543,0.933-0.815,1.399c-20.183,0-40.369,0-61.01,0
		c-2.456,10.4-4.938,20.573-7.253,30.78c-3.548,15.641-7.005,31.301-10.46,46.961c-2.198,9.96-4.329,19.932-6.49,29.898
		C872.802,406.105,870.146,406.105,867.491,406.105z"/>
	<path fill="#4E6C9B" d="M537.031,307.566c1.431-6.958,2.864-13.917,4.295-20.876c0.443,0.021,0.889,0.04,1.332,0.062
		c0.128,1.509,0.237,3.019,0.391,4.523c0.849,8.385,7.083,14.698,15.063,15.271c7.693,0.551,13.739-4.008,15.407-11.833
		c1.163-5.459-0.788-10.081-4.359-14.137c-4.706-5.343-9.583-10.546-14.088-16.053c-6.227-7.608-6.75-15.188-1.96-22.339
		c4.648-6.941,13.221-9.918,21.912-7.585c1.274,0.342,2.573,0.683,3.762,1.235c3.908,1.815,7.701,3.433,10.632-1.562
		c0.198-0.34,1.188-0.218,2.447-0.405c-1.452,8.262-2.84,16.147-4.224,24.033c-0.659-0.02-1.318-0.039-1.979-0.057
		c-0.285-2.124-0.623-4.24-0.846-6.37c-0.904-8.659-5.319-13.332-12.944-13.567c-4.993-0.154-9.251,1.449-11.68,6.027
		c-2.423,4.57-1.642,9.159,1.585,12.998c4.579,5.446,9.546,10.561,14.279,15.879c7.61,8.551,8.928,17.95,3.857,26.93
		c-4.757,8.425-13.749,12.442-23.745,10.425c-2.74-0.556-5.399-1.55-8.064-2.441c-3.251-1.089-6.414-2.323-8.399,2.063
		c-0.248,0.548-1.752,0.525-2.675,0.766C537.031,309.557,537.031,308.561,537.031,307.566z"/>
	<path fill="#4E6C9B" d="M654.448,290.439c-2.158,5.617-4.215,11.275-6.582,16.802c-0.331,0.773-2.181,1.259-3.329,1.264
		c-17.744,0.078-35.488,0.056-53.556-0.258c6.866-1.582,7.803-7.186,9.197-12.548c4.16-16.017,8.404-32.01,12.589-48.018
		c2.377-9.106,2.208-9.406-6.212-12.546c18.297,0,36.466,0,54.968,0c-1.109,5.8-2.166,11.307-3.22,16.815
		c-0.431-0.016-0.858-0.031-1.288-0.047c-0.261-0.494-0.725-0.978-0.745-1.481c-0.382-8.787-1.204-9.717-9.909-11.006
		c-18.263-2.702-19.04-2.2-23.74,15.371c-1.106,4.135-2.192,8.276-3.466,13.086c9.652-1.111,20.193,1.728,23.908-11.376
		c0.379,0.151,0.757,0.304,1.135,0.455c0.25,0.967,0.921,2.047,0.689,2.882c-2.137,7.799-4.43,15.557-6.676,23.329
		c-0.439,0.076-0.876,0.153-1.317,0.231c-0.305-1.172-0.961-2.376-0.858-3.513c0.523-5.874-0.538-7.266-6.533-7.964
		c-0.987-0.115-1.984-0.166-2.979-0.175c-2.644-0.022-5.29-0.007-8.438-0.007c-2.463,9.095-4.953,18.115-7.335,27.168
		c-0.871,3.311,0.833,5.29,3.998,5.448c13.54,0.666,26.779,0.311,35.572-12.6c0.653-0.96,1.894-1.519,2.861-2.265
		C653.604,289.804,654.025,290.123,654.448,290.439z"/>
	<path fill="#CE450F" d="M906.125,351.726c6.808-1.257,12.283-2.268,18.755-3.465c-1.905,7.384-3.678,14.259-5.695,22.082
		c4.043-5.042,7.323-9.476,10.986-13.564c2.178-2.434,4.789-4.579,7.506-6.409c3.487-2.352,7.466-3.192,11.151-0.504
		c3.58,2.617,2.756,6.543,1.857,10.062c-2.454,9.604-5.197,19.136-7.704,28.729c-0.44,1.686-0.295,3.525-0.423,5.29
		c0.561,0.24,1.122,0.483,1.683,0.727c2.869-3.16,5.741-6.319,8.75-9.632c0.05,5.756-9.727,15.132-14.671,13.841
		c-1.745-0.459-4.124-3.253-4.071-4.91c0.141-4.214,1.357-8.422,2.384-12.573c1.782-7.221,3.91-14.356,5.518-21.611
		c0.403-1.831-0.618-3.977-0.983-5.975c-2.111,0.562-4.772,0.501-6.244,1.793c-9.142,8.02-15.325,18.119-19.547,29.453
		c-0.806,2.163-1.389,4.414-2.027,6.64c-1.945,6.79-1.936,6.793-9.902,6.116c3.06-11.486,6.099-22.896,9.139-34.305
		c0.255-0.959,0.503-1.918,0.733-2.882C915.107,353.148,914.838,352.745,906.125,351.726z"/>
	<path d="M914.115,191.726c-0.506,3.826-1.146,8.715-1.792,13.604c-0.298,0.057-0.599,0.113-0.896,0.171
		c-0.398-1.577-0.426-3.396-1.27-4.68c-1.833-2.784-3.663-5.879-6.274-7.756c-2.854-2.049-6.494-1.488-9.03,1.339
		c-2.547,2.836-1.652,5.823,0.333,8.625c2.773,3.921,5.578,7.823,8.34,11.755c3.958,5.633,7.022,11.5,2.969,18.35
		c-3.553,6.005-11.979,8.843-20.26,7.333c-3.385-0.617-6.859-0.775-10.618-1.179c0.521-3.917,1.185-8.925,2.041-15.359
		c1.236,3.294,1.978,5.247,2.704,7.205c1.505,4.048,4.363,6.629,8.564,7.504c3.828,0.796,7.374,0.058,9.747-3.305
		c2.315-3.284,2.431-6.958,0.21-10.279c-3.129-4.677-6.667-9.078-9.901-13.688c-4.354-6.207-4.843-11.449-1.393-16.051
		c4.014-5.357,9.569-5.815,15.663-4.731C906.729,191.198,910.289,191.34,914.115,191.726z"/>
	<path d="M822.151,278.806c48.926,0,97.5,0,146.083,0c2.203,4.153-0.646,3.878-3.215,3.878c-16.088-0.004-32.177-0.003-48.263-0.003
		c-30.187,0-60.373,0.012-90.56-0.021C823.978,282.657,820.673,283.624,822.151,278.806z"/>
	<path fill="#322F49" d="M790.629,271.07c0,2.61,0,4.871,0,7.371c-17.186,0-34.152,0-51.328,0c0-2.517,0-4.777,0-7.371
		C756.304,271.07,773.271,271.07,790.629,271.07z"/>
	<path fill="#322F49" d="M790.844,286.005c0,1.8,0.021,3.274-0.007,4.749c-0.016,0.794-0.108,1.588-0.181,2.618
		c-17.197,0-34.162,0-51.345,0c0-2.499,0-4.759,0-7.365C756.286,286.005,773.251,286.005,790.844,286.005z"/>
	<path fill="#1AD4FF" d="M686.496,333.837c-4.504,4.55-4.778,4.374-9.337-7.376c-1.471,1.703-2.793,3.232-4.115,4.76
		c5.018-6.214,4.023-12.716,0.582-19.268c5.169-1.465,5.306,2.271,6.381,5.98c1.509-1.479,2.652-2.754,3.958-3.835
		c1.125-0.932,2.344-1.928,3.689-2.344c0.907-0.278,2.17,0.283,3.148,0.738c0.303,0.141,0.445,1.583,0.235,1.705
		c-0.878,0.523-1.932,1.1-2.896,1.062c-4.498-0.178-8.038,3.57-7.187,7.85c0.48,2.426,0.764,4.959,1.712,7.203
		C683.219,331.619,684.91,332.44,686.496,333.837z"/>
	<path fill="#1AD4FF" d="M694.055,300.147c-8.138,0-16.273,0-24.41,0c-0.008-0.333-0.013-0.663-0.018-0.996
		c8.14,0,16.278,0,24.418,0C694.049,299.484,694.053,299.814,694.055,300.147z"/>
</g>
</svg>
