<?xml version="1.0" encoding="utf-8"?>
<!-- Generator: Adobe Illustrator 16.0.0, SVG Export Plug-In . SVG Version: 6.00 Build 0)  -->
<!DOCTYPE svg PUBLIC "-//W3C//DTD SVG 1.1//EN" "http://www.w3.org/Graphics/SVG/1.1/DTD/svg11.dtd">
<svg version="1.1" id="Layer_1" xmlns="http://www.w3.org/2000/svg" xmlns:xlink="http://www.w3.org/1999/xlink" x="0px" y="0px"
	 width="640px" height="549.333px" viewBox="0 0 640 549.333" enable-background="new 0 0 640 549.333" xml:space="preserve">
<circle fill="#ABD8D0" cx="431.045" cy="25.937" r="8.317"/>
<g>
	<text transform="matrix(1 0 0 1 444.9983 30.1089)" font-family="'AlegreyaSansSC-Thin'" font-size="14">Deep interviews </text>
	
		<text transform="matrix(1 0 0 1 444.9983 30.1089)" fill="none" stroke="#1C1C1B" stroke-width="0.5" stroke-miterlimit="10" font-family="'AlegreyaSansSC-Thin'" font-size="14">Deep interviews </text>
</g>
<circle fill="#7B91B2" cx="431.045" cy="123.527" r="8.316"/>
<g>
	<g>
		
			<text transform="matrix(1 0 0 1 444.9983 127.6938)" fill="none" stroke="#1C1C1B" stroke-width="0.5" stroke-miterlimit="10" font-family="'AlegreyaSansSC-Thin'" font-size="14">Concept &amp; Sketching</text>
		
			<text transform="matrix(1 0 0 1 444.9983 127.6938)" fill="none" stroke="#1C1C1B" stroke-width="0.5" stroke-miterlimit="10" font-family="'AlegreyaSansSC-Thin'" font-size="14">Concept &amp; Sketching</text>
	</g>
</g>
<circle fill="#EAA486" cx="431.045" cy="58.467" r="8.316"/>
<g>
	<g>
		
			<text transform="matrix(1 0 0 1 444.9983 62.6372)" fill="none" stroke="#1C1C1B" stroke-width="0.5" stroke-miterlimit="10" font-family="'AlegreyaSansSC-Thin'" font-size="14">Investigating  Data</text>
		
			<text transform="matrix(1 0 0 1 444.9983 62.6372)" fill="none" stroke="#1C1C1B" stroke-width="0.5" stroke-miterlimit="10" font-family="'AlegreyaSansSC-Thin'" font-size="14">Investigating  Data</text>
	</g>
</g>
<circle fill="#B9E8AC" cx="431.043" cy="156.057" r="8.317"/>
<g>
	<g>
		
			<text transform="matrix(1 0 0 1 444.9983 160.2222)" fill="none" stroke="#1C1C1B" stroke-width="0.5" stroke-miterlimit="10" font-family="'AlegreyaSansSC-Thin'" font-size="14">Refine</text>
		
			<text transform="matrix(1 0 0 1 444.9983 160.2222)" fill="none" stroke="#1C1C1B" stroke-width="0.5" stroke-miterlimit="10" font-family="'AlegreyaSansSC-Thin'" font-size="14">Refine</text>
	</g>
</g>
<circle fill="#CBCAE5" cx="431.043" cy="90.997" r="8.317"/>
<g>
	<g>
		<g>
			
				<text transform="matrix(1 0 0 1 444.9983 95.1655)" fill="none" stroke="#1C1C1B" stroke-width="0.5" stroke-miterlimit="10" font-family="'AlegreyaSansSC-Thin'" font-size="14">Brainstorm</text>
			
				<text transform="matrix(1 0 0 1 444.9983 95.1655)" fill="none" stroke="#1C1C1B" stroke-width="0.5" stroke-miterlimit="10" font-family="'AlegreyaSansSC-Thin'" font-size="14">Brainstorm</text>
		</g>
	</g>
</g>
<circle fill="#F2DF70" cx="431.045" cy="188.588" r="8.317"/>
<g>
	<g>
		
			<text transform="matrix(1 0 0 1 444.9983 192.7505)" fill="none" stroke="#1C1C1B" stroke-width="0.5" stroke-miterlimit="10" font-family="'AlegreyaSansSC-Thin'" font-size="14">Design</text>
		
			<text transform="matrix(1 0 0 1 444.9983 192.7505)" fill="none" stroke="#1C1C1B" stroke-width="0.5" stroke-miterlimit="10" font-family="'AlegreyaSansSC-Thin'" font-size="14">Design</text>
	</g>
</g>
<path fill="#97D5E8" d="M431.044,229.435c4.59,0,8.312-3.726,8.312-8.317c0-4.593-3.725-8.316-8.312-8.316
	c-4.598,0-8.318,3.723-8.318,8.316C422.726,225.709,426.448,229.435,431.044,229.435z"/>
<g>
	<g>
		
			<text transform="matrix(1 0 0 1 444.9983 225.2778)" fill="none" stroke="#1C1C1B" stroke-width="0.5" stroke-miterlimit="10" font-family="'AlegreyaSansSC-Thin'" font-size="14">Presentation</text>
		
			<text transform="matrix(1 0 0 1 444.9983 225.2778)" fill="none" stroke="#1C1C1B" stroke-width="0.5" stroke-miterlimit="10" font-family="'AlegreyaSansSC-Thin'" font-size="14">Presentation</text>
	</g>
</g>
<path opacity="0.7" fill="none" stroke="#98C881" stroke-width="13" stroke-miterlimit="10" d="M284.54,136.559"/>
<g>
	
		<text transform="matrix(1 0 0 1 226.554 10.9985)" fill="none" stroke="#1C1C1B" stroke-width="0.5" stroke-miterlimit="10" font-family="'AlegreyaSansSC-Thin'" font-size="14">day 3</text>
</g>
<g>
	
		<text transform="matrix(1 0 0 1 110.1262 203.5234)" fill="none" stroke="#1C1C1B" stroke-width="0.5" stroke-miterlimit="10" font-family="'AlegreyaSansSC-Thin'" font-size="14">day 2</text>
</g>
<g>
	
		<text transform="matrix(1 0 0 1 340.1624 202.5229)" fill="none" stroke="#1C1C1B" stroke-width="0.5" stroke-miterlimit="10" font-family="'AlegreyaSansSC-Thin'" font-size="14">day 1</text>
</g>
<path fill="none" stroke="#CBCAE5" stroke-width="13" stroke-miterlimit="10" d="M238.717,62.192
	c40.259,0,72.899,32.635,72.899,72.896c0,40.259-32.64,72.896-72.899,72.896"/>
<path fill="none" stroke="#7B91B2" stroke-width="13" stroke-miterlimit="10" d="M238.717,75.731
	c32.784,0,59.36,26.575,59.36,59.359c0,32.78-26.577,59.357-59.36,59.357"/>
<path opacity="0.7" fill="none" stroke="#2C4675" stroke-width="13" stroke-miterlimit="10" d="M179.357,135.09"/>
<path fill="none" stroke="#B9E8AC" stroke-width="13" stroke-miterlimit="10" d="M238.717,180.909
	c-25.305,0-45.821-20.514-45.821-45.818"/>
<path opacity="0.7" fill="none" stroke="#98C881" stroke-width="13" stroke-miterlimit="10" d="M238.717,89.269"/>
<path fill="none" stroke="#F2DF70" stroke-width="13" stroke-miterlimit="10" d="M271.001,135.09c0,6.011-1.643,11.64-4.506,16.459
	c-5.627,9.473-15.961,15.822-27.778,15.822c-17.83,0-32.284-14.453-32.284-32.281"/>
<path opacity="0.7" fill="none" stroke="#F6DA05" stroke-width="13" stroke-miterlimit="10" d="M238.717,102.808"/>
<path fill="none" stroke="#97D5E8" stroke-width="13" stroke-miterlimit="10" d="M222.5,144.499c-1.608-2.766-2.528-5.98-2.528-9.41
	c0-10.352,8.392-18.744,18.745-18.744"/>
<polyline fill="none" stroke="#5D5C5C" stroke-miterlimit="10" points="238.718,135.047 238.718,28.609 238.718,14.821 "/>
<line fill="none" stroke="#5D5C5C" stroke-miterlimit="10" x1="238.718" y1="135.047" x2="338.694" y2="194.447"/>
<line fill="none" stroke="#5D5C5C" stroke-miterlimit="10" x1="238.718" y1="135.047" x2="138.741" y2="194.447"/>
</svg>
