<?xml version="1.0" encoding="utf-8"?>
<!-- Generator: Adobe Illustrator 16.0.0, SVG Export Plug-In . SVG Version: 6.00 Build 0)  -->
<!DOCTYPE svg PUBLIC "-//W3C//DTD SVG 1.1//EN" "http://www.w3.org/Graphics/SVG/1.1/DTD/svg11.dtd">
<svg version="1.1" id="Layer_1" xmlns="http://www.w3.org/2000/svg" xmlns:xlink="http://www.w3.org/1999/xlink" x="0px" y="0px"
	 width="640px" height="549.333px" viewBox="0 0 640 549.333" enable-background="new 0 0 640 549.333" xml:space="preserve">
<g>
	<g enable-background="new    ">
		<path d="M97.068,162.524h2.261v3.717h2.126v1.827h-2.126v8.687c0,0.464,0.158,0.774,0.472,0.933
			c0.175,0.091,0.464,0.135,0.87,0.135c0.108,0,0.224-0.002,0.349-0.006c0.124-0.007,0.269-0.021,0.435-0.043v1.777
			c-0.257,0.075-0.525,0.129-0.801,0.162c-0.278,0.033-0.579,0.049-0.901,0.049c-1.043,0-1.753-0.267-2.125-0.802
			c-0.373-0.535-0.56-1.229-0.56-2.081v-8.812h-1.802v-1.827h1.802V162.524z"/>
		<path d="M103.692,161.233h2.238v6.811c0.53-0.671,1.006-1.144,1.429-1.417c0.721-0.473,1.619-0.709,2.697-0.709
			c1.931,0,3.24,0.675,3.927,2.026c0.373,0.738,0.56,1.761,0.56,3.07v8.538h-2.299v-8.389c0-0.977-0.125-1.694-0.373-2.149
			c-0.407-0.729-1.167-1.094-2.287-1.094c-0.927,0-1.77,0.319-2.523,0.956c-0.753,0.64-1.13,1.843-1.13,3.618v7.058h-2.238V161.233z
			"/>
		<path d="M126.069,166.607c0.88,0.443,1.551,1.018,2.012,1.722c0.446,0.671,0.741,1.453,0.89,2.349
			c0.132,0.613,0.198,1.59,0.198,2.932h-9.681c0.041,1.355,0.358,2.44,0.949,3.26c0.591,0.818,1.509,1.227,2.75,1.227
			c1.158,0,2.083-0.387,2.774-1.161c0.386-0.449,0.659-0.969,0.821-1.561h2.199c-0.058,0.489-0.25,1.034-0.577,1.635
			c-0.327,0.599-0.692,1.091-1.095,1.472c-0.675,0.663-1.509,1.11-2.504,1.343c-0.534,0.132-1.139,0.198-1.813,0.198
			c-1.646,0-3.042-0.603-4.187-1.809c-1.144-1.204-1.716-2.893-1.716-5.063c0-2.138,0.577-3.873,1.729-5.208
			c1.153-1.333,2.66-2,4.521-2C124.277,165.944,125.186,166.165,126.069,166.607z M126.868,171.834
			c-0.09-0.97-0.299-1.744-0.628-2.324c-0.608-1.076-1.623-1.616-3.043-1.616c-1.02,0-1.875,0.371-2.563,1.111
			c-0.691,0.742-1.056,1.685-1.097,2.828H126.868z"/>
	</g>
	<g>
		<path d="M136.968,179.541v-76.962h22.635c6.154,0,10.636,1.367,13.449,4.098c2.809,2.733,4.215,7.413,4.215,14.035
			c0,4.952-0.503,8.617-1.509,10.995c-1.242,3.218-3.728,5.597-7.457,7.14c3.847,0.768,6.598,2.727,8.255,5.867
			c1.657,3.144,2.485,7.153,2.485,12.026c0,6.863-1.331,12.282-3.994,16.258c-3.018,4.362-7.988,6.542-14.913,6.542h-23.168V179.541
			z M153.301,115.662v17.413h3.018c2.308,0,3.905-0.87,4.793-2.612c0.591-1.417,0.887-3.546,0.887-6.384
			c0-2.902-0.355-5.03-1.065-6.385c-0.71-1.354-2.041-2.032-3.994-2.032L153.301,115.662L153.301,115.662z M153.301,145.581v20.875
			h3.374c2.425,0,4.052-0.672,4.882-2.021c0.768-1.474,1.154-4.296,1.154-8.466c0-3.333-0.296-5.738-0.888-7.215
			c-0.829-2.116-2.427-3.174-4.793-3.174H153.301z"/>
		<path d="M213.262,169.247c-0.03-1.794-0.044-3.206-0.044-4.233v-12.313c0-2.117-0.475-3.704-1.42-4.763
			c-0.948-1.058-2.546-1.588-4.793-1.588h-3.018v33.191h-16.332v-76.962h21.569c7.28,0,12.545,1.382,15.801,4.149
			c3.255,2.766,4.882,7.587,4.882,14.467c0,4.951-0.534,8.681-1.598,11.188c-1.42,3.087-4.171,5.308-8.255,6.656
			c2.958,0.578,5.266,2.022,6.923,4.33c1.716,2.181,2.575,4.874,2.575,8.082v13.563v5.484c0,0.771,0,1.492,0,2.165s0,1.395,0,2.165
			c0,1.861,0.03,3.431,0,4.713h-16.333 M203.986,115.662v17.606h3.919c2.322,0,3.918-0.87,4.79-2.612l0.523-2.322l0.355-4.159
			c0-3.03-0.265-5.127-0.798-6.288c-0.83-1.482-2.693-2.226-5.591-2.226H203.986z"/>
		<path d="M238.871,112.653v-10.076h16.333v10.076H238.871z M255.204,115.75v63.792h-16.333V115.75H255.204L255.204,115.75z"/>
		<path d="M264.347,158.568v-34.92c0-7.248,1.981-12.826,5.947-16.74c3.728-3.656,8.758-5.483,15.091-5.483
			c6.271,0,11.347,1.892,15.222,5.676c3.876,3.785,5.816,9.3,5.816,16.546v7.119h-16.334v-8.657c0-1.86-0.177-3.335-0.532-4.426
			c-0.709-1.732-2.101-2.597-4.172-2.597c-1.952,0-3.316,0.833-4.083,2.501c-0.416,1.347-0.623,2.854-0.623,4.522v37.999
			c0,2.31,0.355,4.105,1.065,5.388c0.71,1.09,1.923,1.634,3.64,1.634c1.952,0,3.313-0.896,4.083-2.693
			c0.415-1.347,0.621-2.789,0.621-4.329v-11.255h16.334v9.716c0,6.799-1.895,12.203-5.682,16.211
			c-3.787,4.009-8.907,6.013-15.356,6.013c-6.39,0-11.494-1.987-15.312-5.964C266.255,170.851,264.347,165.432,264.347,158.568z"/>
		<path d="M315.031,179.541v-76.962h15.802v31.555l11.095-31.555h17.311l-13.582,31.883l13.67,45.079h-17.398l-7.278-27.515
			l-3.817,6.35v21.165H315.031L315.031,179.541z"/>
	</g>
</g>
<path opacity="0.4" fill="#1C1C1B" d="M445.106,96.857v83.934h38.668V78.206L445.106,96.857z M456.951,100.912h6.143v12.283h-6.143
	V100.912z M456.951,114.52h6.143v12.282h-6.143V114.52z M456.951,128.127h6.143v12.282h-6.143V128.127z M454.26,154.221h-6.141
	v-12.284h6.141V154.221z M454.26,140.41h-6.141v-12.282h6.141V140.41z M454.26,126.802h-6.141V114.52h6.141V126.802z
	 M456.951,141.937h6.143v12.284h-6.143V141.937z M471.928,179.401h-14.346v-16.833h14.346V179.401z M471.928,154.221h-6.143v-12.284
	h6.143V154.221z M471.928,140.41h-6.143v-12.282h6.143V140.41z M471.928,126.802h-6.143V114.52h6.143V126.802z M471.928,113.195
	h-6.143v-12.283h6.143V113.195z M480.76,154.221h-6.141v-12.284h6.141V154.221z M480.76,140.41h-6.141v-12.282h6.141V140.41z
	 M480.76,126.802h-6.141V114.52h6.141V126.802z M480.76,113.195h-6.141v-12.283h6.141V113.195z M480.76,99.588h-6.141V87.304h6.141
	V99.588z"/>
<path opacity="0.4" fill="#1C1C1B" d="M506.067,78.206v102.586h38.668V78.206H506.067z M526.746,87.304h6.143v12.284h-6.143V87.304z
	 M526.746,100.912h6.143v12.283h-6.143V100.912z M526.746,114.52h6.143v12.282h-6.143V114.52z M526.746,128.127h6.143v12.282h-6.143
	V128.127z M509.08,87.304h6.141v12.284h-6.141V87.304z M509.08,100.912h6.141v12.283h-6.141V100.912z M509.08,114.52h6.141v12.282
	h-6.141V114.52z M509.08,128.127h6.141v12.282h-6.141V128.127z M509.08,141.937h6.141v12.284h-6.141V141.937z M517.283,179.401
	h-8.203v-16.833h8.203V179.401z M524.055,154.221h-6.143v-12.284h6.143V154.221z M524.055,140.41h-6.143v-12.282h6.143V140.41z
	 M524.055,126.802h-6.143V114.52h6.143V126.802z M524.055,113.195h-6.143v-12.283h6.143V113.195z M524.055,99.588h-6.143V87.304
	h6.143V99.588z M526.746,141.937h6.143v12.284h-6.143V141.937z M541.092,179.401h-8.203v-16.833h8.203V179.401z M541.721,154.221
	h-6.141v-12.284h6.141V154.221z M541.721,140.41h-6.141v-12.282h6.141V140.41z M541.721,126.802h-6.141V114.52h6.141V126.802z
	 M541.721,113.195h-6.141v-12.283h6.141V113.195z M541.721,99.588h-6.141V87.304h6.141V99.588z"/>
<path opacity="0.4" fill="#1C1C1B" d="M384.143,78.206v102.586h38.67V78.206H384.143z M404.824,87.304h6.141v12.284h-6.141V87.304z
	 M404.824,100.912h6.141v12.283h-6.141V100.912z M404.824,114.52h6.141v12.282h-6.141V114.52z M404.824,128.127h6.141v12.282h-6.141
	V128.127z M387.156,87.304h6.143v12.284h-6.143V87.304z M387.156,100.912h6.143v12.283h-6.143V100.912z M387.156,114.52h6.143
	v12.282h-6.143V114.52z M387.156,128.127h6.143v12.282h-6.143V128.127z M387.156,141.937h6.143v12.284h-6.143V141.937z
	 M395.36,179.401h-8.203v-16.833h8.203V179.401z M402.131,154.221h-6.141v-12.284h6.141V154.221z M402.131,140.41h-6.141v-12.282
	h6.141V140.41z M402.131,126.802h-6.141V114.52h6.141V126.802z M402.131,113.195h-6.141v-12.283h6.141V113.195z M402.131,99.588
	h-6.141V87.304h6.141V99.588z M404.824,141.937h6.141v12.284h-6.141V141.937z M419.168,179.401h-8.203v-16.833h8.203V179.401z
	 M419.799,154.221h-6.143v-12.284h6.143V154.221z M419.799,140.41h-6.143v-12.282h6.143V140.41z M419.799,126.802h-6.143V114.52
	h6.143V126.802z M419.799,113.195h-6.143v-12.283h6.143V113.195z M419.799,99.588h-6.143V87.304h6.143V99.588z"/>
</svg>
