<?xml version="1.0" encoding="utf-8"?>
<!-- Generator: Adobe Illustrator 16.0.0, SVG Export Plug-In . SVG Version: 6.00 Build 0)  -->
<!DOCTYPE svg PUBLIC "-//W3C//DTD SVG 1.1//EN" "http://www.w3.org/Graphics/SVG/1.1/DTD/svg11.dtd">
<svg version="1.1" id="Layer_1" xmlns="http://www.w3.org/2000/svg" xmlns:xlink="http://www.w3.org/1999/xlink" x="0px" y="0px"
	 width="1279.92px" height="543.121px" viewBox="0 0 1279.92 543.121" enable-background="new 0 0 1279.92 543.121"
	 xml:space="preserve">
<circle fill="#ABD8D0" cx="1017.179" cy="282.874" r="8.558"/>
<g>
	<text transform="matrix(1 0 0 1 1029.7432 286.7812)" font-family="'AlegreyaSansSC-Thin'" font-size="11.2287">Deep interviews </text>
	
		<text transform="matrix(1 0 0 1 1029.7432 286.7812)" fill="none" stroke="#1C1C1B" stroke-width="0.5" stroke-miterlimit="10" font-family="'AlegreyaSansSC-Thin'" font-size="11.2287">Deep interviews </text>
</g>
<circle fill="#7B91B2" cx="1017.179" cy="354.265" r="8.556"/>
<g>
	<text transform="matrix(1 0 0 1 1029.7432 357.3721)" font-family="'AlegreyaSansSC-Thin'" font-size="11.2287">Concept &amp; Sketching</text>
	
		<text transform="matrix(1 0 0 1 1029.7432 357.3721)" fill="none" stroke="#1C1C1B" stroke-width="0.5" stroke-miterlimit="10" font-family="'AlegreyaSansSC-Thin'" font-size="11.2287">Concept &amp; Sketching</text>
</g>
<circle fill="#EAA486" cx="1017.179" cy="306.672" r="8.555"/>
<g>
	<text transform="matrix(1 0 0 1 1029.7432 309.7773)" font-family="'AlegreyaSansSC-Thin'" font-size="11.2287">Investigating  Data</text>
	
		<text transform="matrix(1 0 0 1 1029.7432 309.7773)" fill="none" stroke="#1C1C1B" stroke-width="0.5" stroke-miterlimit="10" font-family="'AlegreyaSansSC-Thin'" font-size="11.2287">Investigating  Data</text>
</g>
<circle fill="#B9E8AC" cx="1017.177" cy="378.062" r="8.555"/>
<g>
	<text transform="matrix(1 0 0 1 1029.7432 381.1689)" font-family="'AlegreyaSansSC-Thin'" font-size="11.2287">Refine</text>
	
		<text transform="matrix(1 0 0 1 1029.7432 381.1689)" fill="none" stroke="#1C1C1B" stroke-width="0.5" stroke-miterlimit="10" font-family="'AlegreyaSansSC-Thin'" font-size="11.2287">Refine</text>
</g>
<circle fill="#CBCAE5" cx="1017.177" cy="330.468" r="8.556"/>
<g>
	<g>
		<text transform="matrix(1 0 0 1 1029.7432 333.5752)" font-family="'AlegreyaSansSC-Thin'" font-size="11.2287">Brainstorm</text>
		
			<text transform="matrix(1 0 0 1 1029.7432 333.5752)" fill="none" stroke="#1C1C1B" stroke-width="0.5" stroke-miterlimit="10" font-family="'AlegreyaSansSC-Thin'" font-size="11.2287">Brainstorm</text>
	</g>
</g>
<circle fill="#F2DF70" cx="1017.179" cy="401.859" r="8.556"/>
<g>
	<text transform="matrix(1 0 0 1 1029.7432 404.9678)" font-family="'AlegreyaSansSC-Thin'" font-size="11.2287">Design</text>
	
		<text transform="matrix(1 0 0 1 1029.7432 404.9678)" fill="none" stroke="#1C1C1B" stroke-width="0.5" stroke-miterlimit="10" font-family="'AlegreyaSansSC-Thin'" font-size="11.2287">Design</text>
</g>
<path fill="#97D5E8" d="M1017.18,434.213c4.723,0,8.556-3.832,8.556-8.557c0-4.726-3.833-8.556-8.556-8.556
	c-4.728,0-8.557,3.83-8.557,8.556C1008.623,430.381,1012.452,434.213,1017.18,434.213z"/>
<g>
	<text transform="matrix(1 0 0 1 1029.7432 428.7646)" font-family="'AlegreyaSansSC-Thin'" font-size="11.2287">Presentation</text>
	
		<text transform="matrix(1 0 0 1 1029.7432 428.7646)" fill="none" stroke="#1C1C1B" stroke-width="0.5" stroke-miterlimit="10" font-family="'AlegreyaSansSC-Thin'" font-size="11.2287">Presentation</text>
</g>
<g>
	<text transform="matrix(1 0 0 1 1008.6221 121.1475)" fill="#FFFFFF" font-family="'AlternateGotNo3D'" font-size="21.2479">3 days project</text>
</g>
<path opacity="0.7" fill="none" stroke="#98C881" stroke-width="18" stroke-miterlimit="10" enable-background="new    " d="
	M874.715,283.962"/>
<text transform="matrix(1 0 0 1 795.7998 113.0771)" font-family="'AlegreyaSansSC-Thin'" font-size="17">day 3</text>
<text transform="matrix(1 0 0 1 641.4287 373.7354)" font-family="'AlegreyaSansSC-Thin'" font-size="17">day 2</text>
<text transform="matrix(1 0 0 1 950.417 373.7354)" font-family="'AlegreyaSansSC-Thin'" font-size="17">day 1</text>
<path fill="none" stroke="#CBCAE5" stroke-width="18" stroke-miterlimit="10" d="M812.352,182.751
	c54.791,0,99.214,44.416,99.214,99.209c0,54.791-44.423,99.209-99.214,99.209"/>
<path fill="none" stroke="#7B91B2" stroke-width="18" stroke-miterlimit="10" d="M812.352,201.177
	c44.617,0,80.787,36.168,80.787,80.785c0,44.613-36.17,80.783-80.787,80.783"/>
<path opacity="0.7" fill="none" stroke="#2C4675" stroke-width="18" stroke-miterlimit="10" enable-background="new    " d="
	M731.565,281.962"/>
<path fill="none" stroke="#B9E8AC" stroke-width="18" stroke-miterlimit="10" d="M812.352,344.32
	c-34.438,0-62.36-27.918-62.36-62.357"/>
<path opacity="0.7" fill="none" stroke="#98C881" stroke-width="18" stroke-miterlimit="10" enable-background="new    " d="
	M812.352,219.601"/>
<path fill="none" stroke="#F2DF70" stroke-width="18" stroke-miterlimit="10" d="M856.289,281.962
	c0,8.183-2.236,15.843-6.133,22.399c-7.658,12.894-21.724,21.533-37.806,21.533c-24.266,0-43.938-19.67-43.938-43.934"/>
<path opacity="0.7" fill="none" stroke="#F6DA05" stroke-width="18" stroke-miterlimit="10" enable-background="new    " d="
	M812.352,238.027"/>
<path fill="none" stroke="#97D5E8" stroke-width="18" stroke-miterlimit="10" d="M790.281,294.768
	c-2.189-3.765-3.441-8.14-3.441-12.808c0-14.088,11.422-25.51,25.512-25.51"/>
<polyline fill="none" stroke="#5D5C5C" stroke-miterlimit="10" points="812.354,281.904 812.354,137.046 812.354,118.281 "/>
<line fill="none" stroke="#5D5C5C" stroke-miterlimit="10" x1="812.354" y1="281.904" x2="948.416" y2="362.746"/>
<line fill="none" stroke="#5D5C5C" stroke-miterlimit="10" x1="812.354" y1="281.904" x2="676.289" y2="362.746"/>
</svg>
