<?xml version="1.0" encoding="utf-8"?>
<!-- Generator: Adobe Illustrator 16.0.0, SVG Export Plug-In . SVG Version: 6.00 Build 0)  -->
<!DOCTYPE svg PUBLIC "-//W3C//DTD SVG 1.1//EN" "http://www.w3.org/Graphics/SVG/1.1/DTD/svg11.dtd">
<svg version="1.1" id="Layer_1" xmlns="http://www.w3.org/2000/svg" xmlns:xlink="http://www.w3.org/1999/xlink" x="0px" y="0px"
	 width="1139.943px" height="543.121px" viewBox="0 0 1139.943 543.121" enable-background="new 0 0 1139.943 543.121"
	 xml:space="preserve">
<g>
	<g enable-background="new    ">
		<path d="M707.14,208.983h2.345v3.854h2.204v1.896h-2.204v9.008c0,0.481,0.163,0.803,0.489,0.967
			c0.182,0.095,0.481,0.141,0.902,0.141c0.112,0,0.232-0.003,0.362-0.007c0.128-0.007,0.278-0.021,0.45-0.044v1.843
			c-0.267,0.078-0.544,0.134-0.831,0.168c-0.288,0.034-0.6,0.051-0.935,0.051c-1.082,0-1.817-0.276-2.203-0.831
			c-0.387-0.555-0.58-1.274-0.58-2.158v-9.137h-1.869v-1.896h1.869V208.983z"/>
		<path d="M714.008,207.645h2.32v7.062c0.55-0.696,1.044-1.187,1.481-1.47c0.748-0.49,1.68-0.735,2.797-0.735
			c2.002,0,3.359,0.7,4.072,2.101c0.387,0.766,0.58,1.826,0.58,3.184v8.854h-2.384v-8.699c0-1.013-0.13-1.757-0.387-2.229
			c-0.422-0.756-1.211-1.135-2.371-1.135c-0.962,0-1.836,0.331-2.617,0.992c-0.781,0.663-1.172,1.911-1.172,3.751v7.319h-2.32
			V207.645z"/>
		<path d="M737.212,213.217c0.913,0.46,1.609,1.056,2.087,1.786c0.462,0.695,0.769,1.507,0.923,2.436
			c0.137,0.636,0.205,1.649,0.205,3.041h-10.039c0.042,1.404,0.371,2.53,0.984,3.38c0.613,0.849,1.564,1.272,2.852,1.272
			c1.201,0,2.16-0.401,2.877-1.204c0.4-0.466,0.684-1.005,0.852-1.618h2.28c-0.06,0.507-0.259,1.071-0.599,1.695
			c-0.339,0.622-0.718,1.132-1.136,1.526c-0.699,0.688-1.564,1.151-2.597,1.393c-0.554,0.137-1.181,0.205-1.88,0.205
			c-1.707,0-3.154-0.625-4.342-1.875c-1.186-1.249-1.779-3-1.779-5.251c0-2.217,0.598-4.016,1.793-5.4
			c1.195-1.382,2.758-2.073,4.688-2.073C735.355,212.529,736.298,212.759,737.212,213.217z M738.042,218.637
			c-0.094-1.006-0.311-1.808-0.651-2.409c-0.631-1.116-1.684-1.676-3.156-1.676c-1.057,0-1.943,0.385-2.658,1.152
			c-0.716,0.77-1.095,1.747-1.138,2.933H738.042z"/>
	</g>
	<g>
		<path d="M748.515,226.629V146.82h23.473c6.382,0,11.029,1.418,13.946,4.25c2.913,2.834,4.371,7.687,4.371,14.555
			c0,5.135-0.521,8.936-1.564,11.401c-1.288,3.337-3.865,5.804-7.732,7.403c3.989,0.797,6.842,2.828,8.561,6.084
			c1.719,3.26,2.577,7.418,2.577,12.471c0,7.117-1.38,12.736-4.142,16.859c-3.129,4.523-8.283,6.783-15.464,6.783h-24.025V226.629z
			 M765.452,160.388v18.057h3.13c2.393,0,4.05-0.902,4.971-2.709c0.613-1.47,0.92-3.677,0.92-6.62c0-3.009-0.368-5.216-1.104-6.621
			s-2.116-2.107-4.142-2.107L765.452,160.388L765.452,160.388z M765.452,191.413v21.647h3.498c2.515,0,4.202-0.697,5.062-2.095
			c0.797-1.529,1.196-4.455,1.196-8.779c0-3.457-0.307-5.95-0.92-7.481c-0.859-2.195-2.517-3.292-4.971-3.292H765.452z"/>
		<path d="M827.631,215.954c-0.031-1.86-0.046-3.324-0.046-4.39v-12.769c0-2.195-0.492-3.841-1.472-4.938
			c-0.983-1.098-2.641-1.646-4.971-1.646h-3.13v34.418h-16.937V146.82h22.367c7.549,0,13.009,1.434,16.385,4.303
			c3.375,2.868,5.062,7.868,5.062,15.002c0,5.135-0.553,9.002-1.656,11.602c-1.473,3.201-4.326,5.504-8.561,6.902
			c3.067,0.6,5.461,2.097,7.18,4.49c1.779,2.261,2.67,5.054,2.67,8.38v14.065v5.687c0,0.799,0,1.547,0,2.245s0,1.446,0,2.245
			c0,1.93,0.031,3.558,0,4.888h-16.938 M818.012,160.388v18.257h4.064c2.408,0,4.063-0.902,4.967-2.709l0.543-2.407l0.368-4.312
			c0-3.143-0.275-5.317-0.828-6.521c-0.86-1.537-2.793-2.308-5.798-2.308H818.012z"/>
		<path d="M854.187,157.268v-10.448h16.938v10.448H854.187z M871.125,160.479v66.15h-16.938v-66.15H871.125L871.125,160.479z"/>
		<path d="M880.606,204.88v-36.212c0-7.516,2.055-13.301,6.167-17.359c3.866-3.791,9.081-5.686,15.649-5.686
			c6.503,0,11.767,1.962,15.785,5.886c4.02,3.925,6.03,9.644,6.03,17.158v7.382H907.3v-8.978c0-1.929-0.185-3.458-0.552-4.589
			c-0.736-1.796-2.179-2.693-4.326-2.693c-2.025,0-3.438,0.864-4.234,2.594c-0.431,1.396-0.646,2.96-0.646,4.689v39.404
			c0,2.395,0.368,4.257,1.104,5.587c0.737,1.131,1.994,1.695,3.775,1.695c2.024,0,3.436-0.93,4.233-2.793
			c0.43-1.396,0.645-2.893,0.645-4.489v-11.672h16.938v10.075c0,7.051-1.965,12.654-5.892,16.811
			c-3.927,4.157-9.236,6.235-15.924,6.235c-6.627,0-11.92-2.061-15.879-6.185S880.606,211.998,880.606,204.88z"/>
		<path d="M933.165,226.629V146.82h16.386v32.722l11.506-32.722h17.95l-14.085,33.062l14.176,46.746h-18.041l-7.549-28.532
			l-3.958,6.585v21.947H933.165L933.165,226.629z"/>
	</g>
</g>
<path opacity="0.4" fill="#1C1C1B" d="M835.765,359.523v120.754h55.631V332.689L835.765,359.523z M852.808,365.357h8.836v17.67
	h-8.836V365.357z M852.808,384.934h8.836v17.672h-8.836V384.934z M852.808,404.51h8.836v17.672h-8.836V404.51z M848.936,442.049
	h-8.835v-17.67h8.835V442.049z M848.936,422.182h-8.835V404.51h8.835V422.182z M848.936,402.605h-8.835v-17.672h8.835V402.605z
	 M852.808,424.379h8.836v17.67h-8.836V424.379z M874.353,478.277h-20.637v-24.217h20.637V478.277z M874.353,442.049h-8.836v-17.67
	h8.836V442.049z M874.353,422.182h-8.836V404.51h8.836V422.182z M874.353,402.605h-8.836v-17.672h8.836V402.605z M874.353,383.027
	h-8.836v-17.67h8.836V383.027z M887.06,442.049h-8.835v-17.67h8.835V442.049z M887.06,422.182h-8.835V404.51h8.835V422.182z
	 M887.06,402.605h-8.835v-17.672h8.835V402.605z M887.06,383.027h-8.835v-17.67h8.835V383.027z M887.06,363.451h-8.835v-17.67h8.835
	V363.451z"/>
<path opacity="0.4" fill="#1C1C1B" d="M923.467,332.689v147.588h55.631V332.689H923.467z M953.219,345.781h8.836v17.67h-8.836
	V345.781z M953.219,365.357h8.836v17.67h-8.836V365.357z M953.219,384.934h8.836v17.672h-8.836V384.934z M953.219,404.51h8.836
	v17.672h-8.836V404.51z M927.803,345.781h8.835v17.67h-8.835V345.781z M927.803,365.357h8.835v17.67h-8.835V365.357z
	 M927.803,384.934h8.835v17.672h-8.835V384.934z M927.803,404.51h8.835v17.672h-8.835V404.51z M927.803,424.379h8.835v17.67h-8.835
	V424.379z M939.604,478.277h-11.801v-24.217h11.801V478.277z M949.346,442.049h-8.836v-17.67h8.836V442.049z M949.346,422.182
	h-8.836V404.51h8.836V422.182z M949.346,402.605h-8.836v-17.672h8.836V402.605z M949.346,383.027h-8.836v-17.67h8.836V383.027z
	 M949.346,363.451h-8.836v-17.67h8.836V363.451z M953.219,424.379h8.836v17.67h-8.836V424.379z M973.856,478.277h-11.801v-24.217
	h11.801V478.277z M974.762,442.049h-8.835v-17.67h8.835V442.049z M974.762,422.182h-8.835V404.51h8.835V422.182z M974.762,402.605
	h-8.835v-17.672h8.835V402.605z M974.762,383.027h-8.835v-17.67h8.835V383.027z M974.762,363.451h-8.835v-17.67h8.835V363.451z"/>
<path opacity="0.4" fill="#1C1C1B" d="M748.063,332.689v147.588h55.631V332.689H748.063z M777.815,345.781h8.836v17.67h-8.836
	V345.781z M777.815,365.357h8.836v17.67h-8.836V365.357z M777.815,384.934h8.836v17.672h-8.836V384.934z M777.815,404.51h8.836
	v17.672h-8.836V404.51z M752.399,345.781h8.835v17.67h-8.835V345.781z M752.399,365.357h8.835v17.67h-8.835V365.357z
	 M752.399,384.934h8.835v17.672h-8.835V384.934z M752.399,404.51h8.835v17.672h-8.835V404.51z M752.399,424.379h8.835v17.67h-8.835
	V424.379z M764.199,478.277h-11.801v-24.217h11.801V478.277z M773.942,442.049h-8.836v-17.67h8.836V442.049z M773.942,422.182
	h-8.836V404.51h8.836V422.182z M773.942,402.605h-8.836v-17.672h8.836V402.605z M773.942,383.027h-8.836v-17.67h8.836V383.027z
	 M773.942,363.451h-8.836v-17.67h8.836V363.451z M777.815,424.379h8.836v17.67h-8.836V424.379z M798.451,478.277h-11.801v-24.217
	h11.801V478.277z M799.358,442.049h-8.835v-17.67h8.835V442.049z M799.358,422.182h-8.835V404.51h8.835V422.182z M799.358,402.605
	h-8.835v-17.672h8.835V402.605z M799.358,383.027h-8.835v-17.67h8.835V383.027z M799.358,363.451h-8.835v-17.67h8.835V363.451z"/>
</svg>
